<svg xmlns="http://www.w3.org/2000/svg" class="svg-icon" style="display:none">
  <defs>
      <path d="M50.988 32.328H0V0h50.988z"/>
<path d="M0 66.124V0h117.07v66.124H0z"/><lineargradient x1="5.388%" y1="90.861%" y2="14.844%" id="b"><stop stop-color="#FFD520" offset="0%"/><stop stop-color="#F50400" offset="36.757%"/><stop stop-color="#B900B4" offset="100%"/></lineargradient>
<lineargradient x1="5.388%" y1="90.861%" y2="14.844%" id="a"><stop stop-color="#FFD520" offset="0%"/><stop stop-color="#F50400" offset="36.757%"/><stop stop-color="#B900B4" offset="100%"/></lineargradient>
<path d="M0 0v29.648h29.648V0H0z"/>
<lineargradient x1="5.388%" y1="90.861%" y2="14.844%" id="a"><stop stop-color="#FFD520" offset="0%"/><stop stop-color="#F50400" offset="36.757%"/><stop stop-color="#B900B4" offset="100%"/></lineargradient>
<path d="M78.25 78.25V0H0v78.25z"/><lineargradient x1="5.388%" y1="90.861%" y2="14.844%" id="b"><stop stop-color="#FFD520" offset="0%"/><stop stop-color="#F50400" offset="36.757%"/><stop stop-color="#B900B4" offset="100%"/></lineargradient>
<path d="M0 0v23.927h54.907V0H0z"/>
<path d="M0 14.822v14.821h55.222V0H0v14.822z"/>
<path d="M29.99 0v29.99H0V0z"/>
<path d="M27.722 17.8v17.801H0V0h27.722v17.8z"/>
<path d="M29.99 0v29.99H0V0z"/>
<path d="M99.864 0v19H0V0h99.864z"/>
  </defs>
    <symbol id="icon-applepay" viewbox="0 0 51 33">
      <g fill-rule="evenodd"><mask id="b"><use xlink:href="#a"/></mask><path d="M27.093 14.243c-.563.467-1.36.704-2.371.704-.278 0-.541-.012-.783-.034-.2-.019-.384-.05-.55-.091v-5.06c.144-.026.323-.05.535-.074a9.29 9.29 0 0 1 .957-.042c.456 0 .879.054 1.253.16.37.106.695.264.963.468.263.202.47.465.613.781.145.32.219.704.219 1.136 0 .9-.282 1.59-.836 2.052zm1.008-4.544c-.342-.327-.785-.582-1.313-.757-.525-.173-1.154-.26-1.872-.26-.495 0-.958.023-1.376.07-.411.047-.795.1-1.138.16l-.111.018v11.898h1.097v-5.012a7.6 7.6 0 0 0 1.258.096c.621 0 1.203-.08 1.73-.234a3.869 3.869 0 0 0 1.385-.716c.39-.32.7-.72.926-1.191.224-.472.339-1.026.339-1.65 0-.515-.083-.98-.244-1.379-.162-.4-.39-.75-.681-1.043zm6.366 8.32c0 .115-.028.275-.081.466a2.393 2.393 0 0 1-.295.58 2.262 2.262 0 0 1-1.149.86 2.729 2.729 0 0 1-.879.133c-.198 0-.392-.033-.578-.098a1.396 1.396 0 0 1-.486-.287 1.434 1.434 0 0 1-.341-.49 1.817 1.817 0 0 1-.13-.726c0-.466.126-.843.374-1.12.257-.286.586-.507.978-.656.4-.152.844-.253 1.32-.298a11.936 11.936 0 0 1 1.267-.054v1.69zm1.114 1.694a29.52 29.52 0 0 1-.017-1.012v-3.306c0-.392-.04-.792-.119-1.19a2.999 2.999 0 0 0-.454-1.106 2.53 2.53 0 0 0-.925-.814c-.39-.208-.898-.313-1.51-.313-.445 0-.881.058-1.293.171-.414.115-.82.307-1.21.57l-.088.061.37.859.134-.09c.283-.189.602-.34.95-.447.346-.106.7-.16 1.051-.16.457 0 .823.082 1.083.244.265.163.464.367.592.603.134.244.222.504.26.775.042.28.062.532.062.747v.096c-1.626-.007-2.895.26-3.739.798-.884.565-1.333 1.369-1.333 2.388 0 .294.053.59.158.881.106.296.267.56.478.787.212.229.486.416.814.555.327.14.71.211 1.14.211a3.207 3.207 0 0 0 2.529-1.158h.042l.1.965h1.058l-.03-.155a6.624 6.624 0 0 1-.103-.96zm5.398-2.037a24.763 24.763 0 0 0-.509 1.458h-.039c-.049-.154-.1-.313-.156-.481-.106-.324-.22-.64-.337-.944l-2.19-5.544h-1.17l3.131 7.972c.082.191.094.28.094.315 0 .01-.003.076-.095.318a5.77 5.77 0 0 1-.665 1.224c-.25.338-.48.613-.685.816a3.74 3.74 0 0 1-.733.574c-.255.149-.488.27-.693.36l-.118.054.38.917.121-.045c.1-.036.286-.12.569-.257.286-.14.602-.36.939-.66.29-.25.555-.546.79-.88.231-.33.463-.715.69-1.144.224-.427.449-.914.667-1.446.22-.536.455-1.134.698-1.778l2.528-6.34h-1.17l-2.047 5.51zm9.329 10.13c0 .171 0 .341-.002.515 0 .14-.003.28-.007.42-.006.258-.02.56-.073.85a2.519 2.519 0 0 1-.237.716 2.365 2.365 0 0 1-1.043 1.033 2.542 2.542 0 0 1-.722.234 6.02 6.02 0 0 1-.855.073c-.143.004-.286.006-.43.007H4.046c-.143-.001-.286-.003-.425-.007a5.982 5.982 0 0 1-.856-.073 2.533 2.533 0 0 1-.725-.235 2.342 2.342 0 0 1-.603-.435 2.331 2.331 0 0 1-.439-.597 2.533 2.533 0 0 1-.237-.718 5.67 5.67 0 0 1-.074-.848c-.004-.14-.005-.281-.007-.421V4.009c.002-.14.003-.282.007-.422.007-.258.021-.559.074-.85.05-.268.124-.495.238-.715A2.366 2.366 0 0 1 2.04.989c.221-.112.452-.186.723-.235.293-.052.598-.067.857-.073a18 18 0 0 1 .426-.006l.519-.001H46.94a18 18 0 0 1 .426.007c.259.006.564.021.857.073.272.049.502.123.724.235a2.354 2.354 0 0 1 1.042 1.033 2.5 2.5 0 0 1 .237.717c.052.287.067.59.073.848.004.14.007.28.007.423.002.17.002.341.002.512v23.284zm.678-23.802c0-.145-.003-.29-.007-.436a6.269 6.269 0 0 0-.084-.95 3.052 3.052 0 0 0-1.64-2.23 3.248 3.248 0 0 0-.911-.297 6.55 6.55 0 0 0-.96-.084 19.34 19.34 0 0 0-.44-.006h-42.9c-.148 0-.295.002-.442.006-.32.009-.642.028-.958.084-.321.057-.62.15-.912.298a3.035 3.035 0 0 0-1.34 1.327 3.175 3.175 0 0 0-.3.903 6.27 6.27 0 0 0-.085.949c-.004.145-.005.29-.007.436v24.32c.002.145.003.29.007.436.01.316.028.636.085.95.057.317.152.613.3.902a3.035 3.035 0 0 0 1.34 1.327c.292.148.59.241.912.298.316.056.638.075.958.084a67.405 67.405 0 0 0 .964.007h41.855l.523-.001c.146 0 .293-.003.44-.006a6.55 6.55 0 0 0 .96-.084c.32-.057.62-.15.91-.298a3.043 3.043 0 0 0 1.341-1.327c.148-.289.243-.585.3-.903.057-.313.076-.633.084-.949.004-.145.007-.29.007-.436.002-.173.002-.345.002-.518V4.522c0-.172 0-.345-.002-.518zM15.203 9.7c.47-.566.787-1.35.701-2.134-.68.028-1.502.45-1.986 1.013-.439.5-.818 1.3-.713 2.067.756.058 1.526-.381 1.998-.946zm1.953 4.965c-.015-1.692 1.394-2.506 1.459-2.547-.795-1.145-2.027-1.304-2.467-1.321-1.05-.104-2.052.613-2.584.613-.533 0-1.353-.597-2.226-.579-1.145.016-2.2.659-2.79 1.674-1.188 2.05-.302 5.076.856 6.733.567.812 1.242 1.724 2.131 1.69.856-.032 1.177-.548 2.21-.548 1.032-.002 1.323.547 2.225.531.919-.02 1.503-.828 2.066-1.644.648-.94.916-1.852.93-1.898-.018-.01-1.79-.68-1.81-2.704z" mask="url(#b)"/></g>
    </symbol>
    <symbol id="icon-arrow" viewbox="0 0 118 67">
      <g fill-rule="evenodd"><mask id="c"><use xlink:href="#a"/></mask><path d="M115.97 31.193L53.523.19A2.462 2.462 0 0 0 52.577 0c-.53 0-1.003.18-1.331.506-.321.316-1.016 1.18-.547 2.342L61.57 29.38l.63 1.537H2.053C.96 30.917 0 31.868 0 32.953c0 1.084.961 2.037 2.055 2.037h63.243c.822 0 1.374-.497 1.7-.932.35-.634.416-1.304.18-1.848L57.624 9.073l-1.143-2.771 2.696 1.35 48.79 24.436 1.995.997-1.995.997-48.924 24.435-2.684 1.34 1.133-2.757 3.446-8.41a1.935 1.935 0 0 0-.011-1.525 2.037 2.037 0 0 0-1.102-1.095 1.947 1.947 0 0 0-.738-.146c-.82 0-1.582.504-1.898 1.253L50.701 63.32c-.325.725-.106 1.667.5 2.302.462.353.875.503 1.37.503.301 0 .526-.065.951-.276l62.45-30.873a1.958 1.958 0 0 0 1.1-1.759v-.263c0-.748-.423-1.424-1.101-1.76M44.083 45.237H23.268c-1.094 0-2.055.951-2.055 2.035 0 1.085.96 2.036 2.055 2.036h20.815c1.094 0 2.056-.951 2.056-2.036 0-1.16-.883-2.035-2.056-2.035M6.695 23.559h33.28c1.094 0 2.052-.951 2.052-2.035 0-1.085-.958-2.036-2.052-2.036H6.695c-1.094 0-2.055.95-2.055 2.036 0 1.084.96 2.035 2.055 2.035" mask="url(#c)"/></g>
    </symbol>
    <symbol id="icon-bage" viewbox="0 0 78 79">
      <path d="M1.813.362C.829.455-.004 1.375 0 2.362v32c.004.522.223 1.04.594 1.406 0 0 40.872 41.133 40.75 41A4.988 4.988 0 0 0 45 78.362a5.002 5.002 0 0 0 3.75-1.719c-.12.137 17.855-17.832 21.875-21.843.74-.746.737-2.096-.006-2.838-.743-.743-2.092-.745-2.838-.006-4.021 4.012-21.87 21.88-22.031 22.062a.97.97 0 0 1-.75.344.935.935 0 0 1-.719-.312C44.097 73.85 4.565 34.117 4 33.55V4.362h29.188c.567.566 40.26 40.108 40.468 40.281a.88.88 0 0 1 .344.72c0 .306-.139.564-.344.75-.777.703-.844 2.05-.14 2.827.703.778 2.05.845 2.828.14A5.04 5.04 0 0 0 78 45.363a4.97 4.97 0 0 0-1.719-3.75L35.406.956A2.024 2.024 0 0 0 34 .362H2a2.022 2.022 0 0 0-.188 0zm12.187 8c-3.29 0-6 2.71-6 6s2.71 6 6 6 6-2.71 6-6-2.71-6-6-6zm0 4c1.128 0 2 .872 2 2 0 1.128-.872 2-2 2-1.128 0-2-.872-2-2 0-1.128.872-2 2-2zm27.781 10.969c-.983.108-1.802 1.043-1.781 2.031v2.25c-3.945.906-7 4.396-7 8.75 0 2.611 1.51 4.646 3.219 5.75 1.709 1.104 3.568 1.598 5.125 2.125 1.668.565 3.296 1.083 4.281 1.719.985.636 1.375 1.07 1.375 2.406 0 2.974-2.197 5-5 5-2.367 0-4.582-1.726-5.063-3.531-.27-1.015-1.438-1.692-2.453-1.422-1.014.27-1.691 1.439-1.422 2.453.86 3.224 3.63 5.62 6.938 6.313v2.187c-.015 1.057.943 2.029 2 2.029s2.015-.972 2-2.029v-2.219c3.945-.905 7-4.427 7-8.78 0-2.612-1.51-4.647-3.219-5.75-1.709-1.105-3.568-1.63-5.125-2.157-1.668-.565-3.296-1.083-4.281-1.719C37.39 38.101 37 37.698 37 36.362c0-2.974 2.197-5 5-5 2.367 0 4.582 1.695 5.063 3.5.27 1.015 1.438 1.692 2.453 1.422 1.014-.27 1.692-1.439 1.422-2.453-.86-3.224-3.63-5.564-6.938-6.25v-2.219c.024-1.134-1.09-2.155-2.219-2.031z" fill-rule="nonzero"/>
    </symbol>
    <symbol id="icon-copyright" viewbox="0 0 30 30">
      <g fill-rule="evenodd"><mask id="b"><use xlink:href="#a"/></mask><path d="M20.837 18.084v-.001c-.479-.276-1.07-.132-1.408.305a5.821 5.821 0 0 1-5.494 2.195c-2.564-.38-4.612-2.516-4.9-5.092a5.834 5.834 0 0 1 5.789-6.494c1.872 0 3.54.889 4.607 2.266.337.435.927.576 1.403.301.57-.33.703-1.083.3-1.605a7.968 7.968 0 0 0-7.658-2.993c-3.455.565-6.176 3.45-6.57 6.929a7.971 7.971 0 0 0 14.272 5.737c.381-.503.206-1.233-.341-1.549m-6.013 9.422c-6.992 0-12.681-5.689-12.681-12.68 0-6.994 5.689-12.682 12.681-12.682 6.992 0 12.68 5.688 12.68 12.681 0 6.992-5.688 12.68-12.68 12.68m0-27.504C6.637 0 0 6.637 0 14.824c0 8.187 6.637 14.824 14.824 14.824 8.187 0 14.824-6.637 14.824-14.824C29.648 6.637 23.01 0 14.824 0" mask="url(#b)"/></g>
    </symbol>
    <symbol id="icon-direct" viewbox="0 0 88 89">
      <path d="M44 .362c-24.277 0-44 19.723-44 44s19.723 44 44 44 44-19.723 44-44C88 22.915 72.625 5.02 52.281 1.143a2 2 0 1 0-.75 3.907C70.018 8.572 84 24.824 84 44.362c0 22.115-17.885 40-40 40s-40-17.885-40-40 17.885-40 40-40a2 2 0 1 0 0-4zm2.781 26.969A2 2 0 0 0 45 29.362v11.844L26.156 27.737a2 2 0 0 0-1.312-.375 2 2 0 0 0-1.844 2v30a2 2 0 0 0 3.156 1.625L45 47.518v11.844a2 2 0 0 0 3.125 1.625l22-15a2 2 0 0 0 0-3.281l-13.938-9.531a2.002 2.002 0 1 0-2.25 3.312l11.532 7.875L49 55.581V29.362a2 2 0 0 0-2.219-2.031zM27 33.237l15.563 11.125L27 55.487v-22.25z" fill-rule="nonzero"/>
    </symbol>
    <symbol id="icon-flwrs" viewbox="0 0 86 32">
      <text transform="translate(2 -1)" fill-rule="evenodd" font-weight="600" font-family="UniSansHeavyItalic, Uni Sans" font-style="italic" font-size="36"><tspan x=".034" y="27">flwrs.</tspan></text>
    </symbol>
    <symbol id="icon-insta" viewbox="0 0 30 30">
      <path d="M27.201 21.055c-.066 1.462-.31 2.256-.516 2.784-.272.7-.597 1.2-1.122 1.724a4.646 4.646 0 0 1-1.724 1.122c-.528.205-1.322.45-2.784.516-1.581.072-2.056.088-6.06.088s-4.478-.016-6.06-.088c-1.461-.066-2.255-.31-2.784-.516-.7-.272-1.199-.597-1.724-1.122a4.646 4.646 0 0 1-1.121-1.724c-.206-.528-.45-1.322-.517-2.784-.072-1.582-.087-2.056-.087-6.06s.015-4.478.087-6.06c.067-1.461.311-2.255.517-2.784.272-.7.597-1.199 1.121-1.724a4.646 4.646 0 0 1 1.724-1.121c.529-.206 1.323-.45 2.785-.517 1.581-.072 2.055-.087 6.06-.087 4.003 0 4.477.015 6.059.087 1.462.067 2.256.311 2.784.517.7.272 1.2.597 1.724 1.121.525.525.85 1.025 1.122 1.724.205.529.45 1.323.516 2.785.072 1.581.088 2.055.088 6.06 0 4.003-.016 4.477-.088 6.059m2.7-12.242c-.073-1.596-.327-2.686-.698-3.64a7.352 7.352 0 0 0-1.73-2.656 7.351 7.351 0 0 0-2.655-1.73c-.954-.37-2.044-.624-3.64-.697-1.6-.073-2.11-.09-6.183-.09-4.072 0-4.583.017-6.182.09-1.596.073-2.686.327-3.64.697a7.351 7.351 0 0 0-2.656 1.73 7.35 7.35 0 0 0-1.73 2.656c-.37.954-.624 2.044-.697 3.64-.073 1.6-.09 2.11-.09 6.182 0 4.073.017 4.583.09 6.183.073 1.596.327 2.686.697 3.64a7.35 7.35 0 0 0 1.73 2.656 7.35 7.35 0 0 0 2.656 1.73c.954.37 2.044.624 3.64.696 1.6.073 2.11.09 6.182.09 4.073 0 4.583-.017 6.183-.09 1.596-.072 2.686-.326 3.64-.697a7.35 7.35 0 0 0 2.656-1.73 7.351 7.351 0 0 0 1.73-2.655c.37-.954.624-2.044.696-3.64.073-1.6.09-2.11.09-6.183 0-4.072-.017-4.583-.09-6.182M23 5.19a1.8 1.8 0 1 0 0 3.6 1.8 1.8 0 0 0 0-3.6m-8.005 14.803a4.998 4.998 0 1 1 0-9.997 4.998 4.998 0 0 1 0 9.997m0-12.699a7.7 7.7 0 1 0 0 15.4 7.7 7.7 0 0 0 0-15.4" fill-rule="evenodd"/>
    </symbol>
    <symbol id="icon-instagram" viewbox="0 0 180 180">
      <path d="M163.208 126.328c-.4 8.772-1.867 13.536-3.098 16.706-1.632 4.2-3.582 7.197-6.73 10.345-3.149 3.149-6.146 5.099-10.346 6.73-3.17 1.233-7.934 2.699-16.706 3.099-9.486.432-12.331.524-36.357.524-24.025 0-26.87-.092-36.356-.524-8.772-.4-13.536-1.866-16.706-3.098-4.2-1.632-7.197-3.582-10.345-6.73-3.148-3.149-5.098-6.146-6.73-10.346-1.233-3.17-2.698-7.934-3.099-16.706-.432-9.487-.524-12.333-.524-36.356 0-24.024.092-26.87.524-36.357.401-8.772 1.866-13.536 3.099-16.706 1.632-4.2 3.582-7.197 6.73-10.345 3.148-3.149 6.145-5.099 10.345-6.73 3.17-1.232 7.934-2.698 16.706-3.099 9.488-.432 12.333-.524 36.356-.524 24.024 0 26.87.092 36.357.524 8.772.4 13.536 1.867 16.706 3.098 4.2 1.632 7.197 3.582 10.345 6.73 3.149 3.15 5.099 6.146 6.73 10.346 1.232 3.17 2.699 7.934 3.099 16.706.432 9.488.524 12.333.524 36.357 0 24.023-.092 26.869-.524 36.356m16.194-73.451c-.437-9.577-1.958-16.117-4.182-21.84-2.3-5.917-5.376-10.934-10.377-15.936-5.003-5.002-10.02-8.078-15.937-10.378C143.184 2.5 136.643.978 127.066.541c-9.596-.438-12.66-.54-37.095-.54-24.434 0-27.498.102-37.095.54C43.3.978 36.76 2.5 31.036 4.723c-5.916 2.3-10.933 5.376-15.935 10.378-5.002 5.002-8.078 10.02-10.377 15.936C2.499 36.76.978 43.3.54 52.877.104 62.473 0 65.537 0 89.972s.104 27.498.541 37.095c.437 9.576 1.958 16.116 4.183 21.84 2.299 5.916 5.375 10.933 10.377 15.935 5.002 5.002 10.02 8.078 15.936 10.378 5.723 2.224 12.263 3.745 21.84 4.182 9.596.438 12.66.541 37.094.541 24.435 0 27.5-.103 37.096-.541 9.576-.437 16.117-1.958 21.84-4.182 5.916-2.3 10.933-5.376 15.936-10.378 5.001-5.002 8.077-10.019 10.377-15.935 2.224-5.724 3.745-12.264 4.182-21.84.438-9.597.541-12.66.541-37.095s-.103-27.499-.541-37.095m-41.403-21.729c-5.963 0-10.797 4.834-10.797 10.797 0 5.962 4.834 10.796 10.797 10.796 5.962 0 10.796-4.834 10.796-10.796 0-5.963-4.834-10.797-10.796-10.797M89.97 119.962c-16.563 0-29.99-13.427-29.99-29.99 0-16.564 13.427-29.991 29.99-29.991 16.564 0 29.991 13.427 29.991 29.99 0 16.564-13.427 29.991-29.99 29.991m0-76.192c-25.517 0-46.202 20.685-46.202 46.202 0 25.516 20.685 46.201 46.201 46.201 25.517 0 46.202-20.685 46.202-46.201 0-25.517-20.685-46.202-46.202-46.202" fill-rule="evenodd"/>
    </symbol>
    <symbol id="icon-master-card" viewbox="0 0 39 30">
      <path d="M18.833 2.926a11.888 11.888 0 0 0-4.101 8.992 11.887 11.887 0 0 0 4.552 9.366 11.886 11.886 0 0 0 4.552-9.365 11.887 11.887 0 0 0-4.552-9.366c-.153.12-.304.245-.45.373zm1.22-.934c.096.079.194.157.287.238a12.839 12.839 0 0 1 4.418 9.688 12.84 12.84 0 0 1-4.417 9.688c-.094.081-.192.16-.289.239a11.862 11.862 0 0 0 6.598 1.991c6.582 0 11.918-5.335 11.918-11.918C38.568 5.336 33.232 0 26.65 0c-2.44 0-4.709.734-6.598 1.992zm-1.537 19.852a11.86 11.86 0 0 1-6.598 1.993C5.336 23.837 0 18.5 0 11.918 0 5.336 5.336 0 11.918 0c2.44 0 4.709.734 6.598 1.992-.097.079-.194.157-.288.238a12.84 12.84 0 0 0-4.418 9.688c0 3.714 1.61 7.245 4.418 9.688.093.081.191.16.288.238zm19.679-2.54v-.463h-.121l-.139.318-.139-.318h-.12v.462h.085v-.349l.13.301h.088l.13-.301v.35h.086zm-.765 0v-.384h.155v-.079h-.394v.079h.154v.383h.085zm.373 10.29v.077h.071c.017 0 .03-.003.04-.01.01-.006.014-.016.014-.03 0-.012-.005-.022-.015-.029a.075.075 0 0 0-.039-.009h-.071zm.072-.056c.037 0 .066.008.087.025.02.017.03.04.03.069a.08.08 0 0 1-.024.06.119.119 0 0 1-.07.028l.097.11h-.075l-.089-.11h-.028v.11h-.063v-.292h.135zm.076.374a.245.245 0 0 0 .148-.227.244.244 0 1 0-.47.096.243.243 0 0 0 .322.13zm.03-.517a.329.329 0 0 1 .17.168.298.298 0 0 1 .025.122.315.315 0 0 1-.195.29.316.316 0 0 1-.354-.068.32.32 0 0 1-.093-.222.315.315 0 0 1 .322-.315c.045.001.086.01.125.025zm-28.687-2.16c.569 0 .953.436.953 1.012 0 .576-.384 1.013-.953 1.013-.596 0-.96-.457-.96-1.013 0-.556.364-1.013.96-1.013zm1.602 1.012v-1.582h-.689v.384c-.218-.284-.55-.463-1-.463-.886 0-1.582.695-1.582 1.661 0 .967.696 1.662 1.583 1.662.45 0 .78-.179 1-.464v.385h.688v-1.583zm24.21-1.013c.57 0 .954.437.954 1.013 0 .576-.384 1.013-.954 1.013-.595 0-.96-.457-.96-1.013 0-.556.365-1.013.96-1.013zm1.603 1.013v-2.853h-.689v1.655c-.218-.284-.55-.463-1-.463-.887 0-1.582.695-1.582 1.661 0 .967.695 1.662 1.583 1.662.45 0 .78-.179 1-.464v.385h.688v-1.583zm-16.472-.278h-1.642c.073-.457.351-.768.841-.768.444 0 .728.278.801.768zm-2.363.278c0 1.006.675 1.662 1.622 1.662.476 0 .913-.12 1.297-.444l-.337-.51c-.265.213-.603.332-.92.332-.444 0-.848-.205-.947-.775h2.35c.007-.086.013-.172.013-.265-.006-.986-.615-1.661-1.503-1.661-.927 0-1.575.675-1.575 1.661zm10.844-1.013c.57 0 .953.437.953 1.013 0 .576-.384 1.013-.953 1.013-.596 0-.96-.457-.96-1.013 0-.556.364-1.013.96-1.013zm1.602 1.013v-1.582h-.688v.384c-.219-.284-.55-.463-1-.463-.887 0-1.582.695-1.582 1.661 0 .967.695 1.662 1.582 1.662.45 0 .781-.179 1-.464v.385h.688v-1.583zm-4.76 1.662c.477 0 .794-.106 1.139-.377l-.331-.556c-.259.185-.53.284-.828.284-.55-.007-.953-.404-.953-1.013 0-.609.404-1.006.953-1.013.298 0 .57.1.828.285l.33-.556c-.344-.272-.661-.377-1.138-.377-1.02 0-1.688.701-1.688 1.661 0 .96.668 1.662 1.688 1.662zm6.349-2.86v-.384h-.682v3.165h.689v-1.775c0-.523.225-.814.675-.814.139 0 .285.02.43.08l.212-.65a1.471 1.471 0 0 0-.49-.085c-.397 0-.655.185-.834.463zm-17.61-.133c-.331-.218-.788-.33-1.291-.33-.801 0-1.317.383-1.317 1.012 0 .517.383.835 1.092.934l.324.046c.377.053.556.152.556.331 0 .245-.252.384-.721.384-.477 0-.821-.152-1.053-.33l-.325.536c.378.278.855.41 1.371.41.913 0 1.443-.43 1.443-1.033 0-.556-.417-.847-1.105-.947l-.325-.046c-.298-.04-.536-.1-.536-.311 0-.232.225-.37.602-.37.404 0 .795.151.987.27l.298-.556zm8.043.133v-.384h-.681v3.165h.688v-1.775c0-.523.225-.814.675-.814.14 0 .285.02.43.08l.212-.65a1.471 1.471 0 0 0-.49-.085c-.396 0-.655.185-.834.463zm-5.038-.384H16.18v-.96h-.695v.96h-.642v.629h.642v1.443c0 .735.284 1.172 1.099 1.172.298 0 .642-.092.86-.245l-.198-.59c-.205.12-.43.18-.61.18-.344 0-.456-.212-.456-.53v-1.43h1.125v-.63zM7.016 29.83v-1.987c0-.748-.476-1.251-1.244-1.257-.404-.007-.821.119-1.113.562-.218-.35-.562-.562-1.045-.562-.338 0-.67.1-.927.47v-.391h-.689v3.165h.695v-1.755c0-.55.305-.84.775-.84.456 0 .688.297.688.833v1.762h.695v-1.755c0-.55.318-.84.775-.84.47 0 .695.297.695.833v1.762h.695z" fill-rule="evenodd"/>
    </symbol>
    <symbol id="icon-people" viewbox="0 0 79 79">
      <g fill-rule="evenodd"><mask id="c"><use xlink:href="#a"/></mask><path d="M59.078 71.207c-1.174.783-2.347 1.565-3.912 1.957-2.348.782-5.086 1.173-7.825 1.173h-16.04c-2.74 0-5.479-.39-7.827-1.173-1.564-.392-3.129-1.174-3.912-1.957-1.173-.782-1.956-2.347-1.956-3.912 0-1.174.391-2.739.783-3.522 3.13-3.129 7.433-5.868 14.085-7.824.391 0 .782-.392.782-.392 1.174-1.173 2.74-2.347 2.74-3.912.39-1.957-.784-3.13-1.957-4.304-3.913-5.477-5.869-10.564-5.478-14.867.391-2.739 1.565-5.087 3.913-6.652 1.956-1.174 4.303-1.956 6.651-1.956s4.695.782 6.651 1.956c2.347 1.957 3.521 3.913 3.912 6.652.392 4.303-1.565 9.781-5.477 14.867-1.174 1.174-2.348 2.74-2.348 4.304 0 1.565 1.566 2.74 2.74 3.912.39 0 .39.392.782.392 6.651 2.347 11.346 4.695 14.085 7.824 1.173.783 1.565 2.348 1.565 3.522 0 1.565-.783 3.13-1.957 3.912zM46.95 52.427c-.392-.39-1.174-.782-1.174-.782s0-.392 1.174-1.565c4.694-6.26 7.042-12.52 6.26-17.998-.392-3.52-2.348-6.65-5.478-8.999-4.695-3.52-12.52-3.52-17.606 0-3.13 2.348-4.694 5.478-5.478 9-.782 5.477 1.566 11.346 6.652 17.997l1.174 1.173-1.174 1.174c-7.042 2.348-12.129 5.087-15.259 8.608-1.565 1.956-2.348 3.912-2.348 6.26 0 2.74 1.174 5.477 3.522 6.651 1.174 1.174 2.74 1.956 4.695 2.74 2.738 1.172 5.868 1.563 9.39 1.563h16.041c3.13 0 6.26-.39 9.39-1.173 1.956-.783 3.521-1.565 4.695-2.739 1.956-1.565 3.13-4.303 3.13-7.042 0-2.348-.783-4.695-2.347-6.26-3.13-3.52-8.217-6.26-15.259-8.608zm-25.04-8.216c1.174 0 1.956-.782 1.956-1.956S23.084 40.3 21.91 40.3h-8.217c-1.956 0-3.912-.392-5.477-1.174-1.173-.392-1.956-.783-2.739-1.174-.782-.39-1.173-1.174-1.173-2.348 0-.782.391-1.564.782-2.347 2.347-2.347 5.477-3.912 9.781-5.869.392 0 .783-.39.783-.39 1.173-.783 2.347-1.566 2.347-3.13.392-1.175-.782-2.348-1.565-3.522-2.739-3.912-4.303-7.434-3.913-10.564 0-1.565 1.174-3.13 2.74-4.303 2.738-1.957 6.26-1.957 9 0 1.563 1.173 2.737 2.738 2.737 4.694.392 2.74-.782 6.652-3.912 10.564-.783.783-.392 1.956.39 2.74.784.39 1.958.39 2.74-.393 3.52-4.694 5.086-9.389 4.694-13.693-.39-2.739-1.956-5.086-4.304-7.042-3.912-3.13-9.78-3.13-13.693 0C10.563 3.913 9 6.651 8.607 9.39c-.782 3.912 1.174 9 5.086 13.693 0 .392.392.783.392.783 0 .391-.392.391-.392.391-5.086 1.565-8.998 3.522-11.737 6.261C.782 32.082 0 33.648 0 35.603c0 1.957 1.174 4.304 2.738 5.478 1.174.783 2.348 1.565 3.913 1.956 1.956.783 4.304 1.174 7.042 1.174h8.217zm54.383-12.91c-2.347-2.74-6.26-5.087-11.346-6.653 0-.39-.39-.39-.39-.39.39 0 .39-.392.782-.783 3.52-4.695 5.086-9.39 4.694-13.694-.39-2.739-1.956-5.086-4.304-7.042-3.912-3.13-9.78-3.13-13.693 0-2.348 1.565-3.913 4.303-4.304 7.042-.782 4.304.783 9 4.696 13.694.782.782 1.956 1.173 2.738.391.782-.783 1.174-1.956.391-2.739-2.739-3.912-4.303-7.433-3.913-10.563.392-1.957 1.174-3.522 2.74-4.695 2.347-1.956 6.26-1.956 8.998 0 1.565 1.173 2.347 2.738 2.74 4.695.39 3.13-1.175 6.651-3.913 10.563-1.174.783-1.957 1.956-1.957 3.521.391 1.174 1.174 2.348 2.347 3.131.392 0 .392.391.783.391 4.695 1.565 8.217 3.13 10.173 5.477.391.783.782 1.565.782 2.348 0 .782-.39 1.956-1.174 2.347-.782.391-1.564.783-2.738 1.174-1.956.391-3.913.783-5.869.783H56.34c-1.174 0-1.956.782-1.956 1.956s.782 1.956 1.956 1.956h8.216c2.347 0 4.695-.39 7.043-.39 1.564-.392 2.738-1.175 3.912-1.957a6.848 6.848 0 0 0 2.74-5.478c0-1.956-.784-3.912-1.958-5.086z" mask="url(#c)"/></g>
    </symbol>
    <symbol id="icon-qiwi" viewbox="0 0 55 24">
      <g fill-rule="evenodd"><mask id="b"><use xlink:href="#a"/></mask><path d="M18.304 15.066c-.208-.06-.364-.015-.44.126-.117.214-.03.636.204 1.004.237.373.439.562.6.562a.187.187 0 0 0 .143-.067c.09-.103.119-.32.081-.592-.038-.28-.208-.853-.588-1.033zm-2.347 1.742c-.213 0-.39.074-.499.21-.28.346-.154.956.274 1.332.187.164.456.262.72.262.27 0 .494-.101.632-.285.25-.336.106-.811-.364-1.212a1.199 1.199 0 0 0-.763-.307zm1.388 2.904a36.46 36.46 0 0 0-.79-.2c-1.41-.348-2.735-.687-4.082-2.061a10.09 10.09 0 0 1-1.167-1.464c-.101-.15-.201-.307-.303-.473-.285-.469-.262.693-.153 2.092l.005.069c-.09.003-.18.005-.27.005-1.895 0-3.48-.667-4.845-2.039-1.365-1.372-2.028-3.003-2.028-4.987 0-1.988.645-3.626 1.973-5.008 1.32-1.375 2.923-2.044 4.9-2.044 1.93 0 3.536.668 4.91 2.041 1.372 1.372 2.04 3.024 2.04 5.05 0 .26-.012.514-.033.762l-.069-.004c-1.174-.075-2.196-.06-2.267.011-.17.17.3.146.512.203.345.094.666.207.964.34.233.103.45.218.655.344l.063.038c1.248.797 1.955 2.03 2.184 3.654.01.065.048.153.119.037.654-1.104 1.005-1.964 1.194-2.571l.009.005a11.177 11.177 0 0 0 .168-.715c.14-.704.212-1.427.212-2.168 0-1.92-.477-3.723-1.42-5.36a10.272 10.272 0 0 0-3.905-3.872C14.277.47 12.456 0 10.507 0 8.642 0 6.874.476 5.254 1.414a10.33 10.33 0 0 0-3.85 3.897A10.755 10.755 0 0 0 0 10.68c0 1.92.473 3.718 1.407 5.346a10.2 10.2 0 0 0 3.893 3.86 10.75 10.75 0 0 0 5.349 1.396c.405 0 .804-.022 1.198-.065l.3-.023c.227-.018.453-.038.676-.058 1.117-.099 2.187-.203 3.262-.157 2.027.085 4.076.7 6.512 2.869.244.217.571-.055.356-.323-2.118-2.639-3.932-3.363-5.608-3.813zm35.63-7h1.742c.103 0 .167-.065.167-.168V3.746c0-.103-.064-.168-.167-.168h-1.742c-.103 0-.167.065-.167.168v8.798c0 .103.064.168.167.168zm-7.88-3.968c.076-.348.179-.876.255-1.327.026-.18.18-.18.205 0 .077.451.18.992.257 1.327l.397 1.674c.18.71.32 1.392.461 2.139.013.103.077.154.18.154h2.344c.103 0 .167-.051.18-.154.166-.876.359-1.726.59-2.615l1.575-6.183c.039-.103-.025-.18-.14-.18H49.63c-.103 0-.167.051-.192.141l-.872 3.478c-.217.876-.41 1.997-.474 2.834-.012.168-.205.18-.217 0-.116-.824-.32-1.958-.564-2.834l-.948-3.478c-.026-.09-.09-.142-.18-.142h-1.46c-.09 0-.154.052-.18.142l-.935 3.478c-.243.876-.449 2.01-.564 2.834-.025.18-.218.168-.23 0a20.76 20.76 0 0 0-.475-2.834l-.87-3.478c-.026-.09-.09-.142-.193-.142h-1.768c-.116 0-.18.078-.141.181l1.576 6.183c.23.889.422 1.74.59 2.615.012.103.076.154.179.154h2.344c.103 0 .167-.051.18-.154.153-.747.294-1.43.461-2.139l.397-1.674zm-6.997-4.998c0-.103-.064-.168-.166-.168h-1.743c-.102 0-.166.065-.166.168v8.798c0 .103.064.168.166.168h1.743c.102 0 .166-.065.166-.168V3.746zm-7.573 7.252c-1.217 0-1.998-1.082-1.998-2.846 0-1.804.781-2.847 1.998-2.847 1.243 0 1.986 1.043 1.986 2.847 0 1.764-.743 2.846-1.986 2.846zm2.614 3.092l.615.824c.064.077.154.09.23.026l1.282-1.005c.077-.064.09-.154.026-.232l-.577-.785c-.397-.516-.743-.838-1.486-1.108-.154-.052-.154-.09 0-.18.858-.516 1.371-2.01 1.371-3.478 0-2.899-1.563-4.715-4.075-4.715-2.511 0-4.087 1.816-4.087 4.715 0 2.885 1.576 4.701 4.087 4.701 1.333 0 2.05.477 2.614 1.237zm19.744 4.467c.077-.463.4-.733.812-.733.361 0 .658.253.674.733h-1.486zm2.024.16c0-.717-.417-1.307-1.201-1.307-.79 0-1.393.573-1.393 1.461 0 .827.603 1.461 1.475 1.461.384 0 .806-.149 1.075-.397l-.225-.391c-.22.198-.521.325-.817.325-.5 0-.927-.325-.954-.926h2.018c.01-.077.022-.155.022-.226zm-3.34-1.24h-.51v2.326H50.03v-2.327h-.515v2.327H48.49v-2.327h-.51v2.79h3.494v.662h.488v-1.125h-.395v-2.327zm-5.61 2.392c-.527 0-.955-.42-.955-1.003 0-.58.428-.993.955-.993.52 0 .954.414.954.993 0 .584-.433 1.003-.954 1.003zm-.006-2.459c-.822 0-1.491.612-1.491 1.456 0 .849.669 1.466 1.497 1.466.822 0 1.491-.617 1.491-1.466 0-.844-.669-1.456-1.497-1.456zm-3.307 2.459c-.51 0-.784-.49-.784-.987 0-.705.384-1.003.8-1.003.461 0 .785.391.785.998 0 .634-.362.992-.8.992zm.12-2.459c-.405 0-.756.188-.931.524h-.011s.016-.094.016-.21v-.248h-.493v3.893h.531V20.1c0-.144-.021-.243-.021-.243h.01c.192.298.51.474.861.474.73 0 1.256-.573 1.256-1.46 0-.867-.466-1.462-1.217-1.462zm-4.666 2.856h.532v-2.332h1.36v2.332h.532v-2.79h-2.424v2.79zm-4.036-1.71c.076-.462.4-.732.811-.732.362 0 .658.253.675.733h-1.486zm.822-1.146c-.79 0-1.393.573-1.393 1.461 0 .827.603 1.461 1.476 1.461.383 0 .806-.149 1.074-.397l-.224-.391c-.22.198-.522.325-.818.325-.499 0-.926-.325-.954-.926h2.018c.011-.077.022-.155.022-.226 0-.717-.416-1.307-1.2-1.307zm.214-.485h.433v-.557h-.433v.557zm-.921 0h.439v-.557h-.44v.557zm-2.084 2.944c-.576 0-.982-.436-.982-1.003 0-.568.406-.993.965-.993.291 0 .581.132.768.32l.252-.375c-.263-.281-.674-.408-1.042-.408-.871 0-1.486.634-1.486 1.461 0 .838.609 1.461 1.486 1.461.434 0 .856-.176 1.108-.446l-.214-.392a1.236 1.236 0 0 1-.855.375zM29 19.891h-.57v-.876h.564c.368 0 .57.165.57.44 0 .26-.18.436-.564.436zm-.57-2.045h.504c.335 0 .494.132.494.386 0 .259-.16.424-.478.424h-.52v-.81zm1.146.964v-.005a.648.648 0 0 0 .394-.612c0-.469-.367-.717-.926-.717h-1.146v2.79h1.184c.603 0 1.02-.276 1.02-.794a.656.656 0 0 0-.526-.662z" mask="url(#b)"/></g>
    </symbol>
    <symbol id="icon-studiologo" viewbox="0 0 56 30">
      <g fill-rule="evenodd"><mask id="b"><use xlink:href="#a"/></mask><path d="M52.546 14.182a9.08 9.08 0 0 0-6.443-2.699h-.004l-5.872.005-5.55-.005V6.682l5.974.01a3.432 3.432 0 0 0 3.418-3.44c.004-1.89-1.524-3.26-3.421-3.252h-9.256c-1.711 0-3.421 1.716-3.417 3.431l.003 10.713c.006 1.718 1.72 3.433 3.423 3.422l8.826.004h5.876c.633 0 1.206.25 1.602.655.42.424.709 1.467.712 2.11h-.003c0 .631-.285 1.447-.691 1.854-.418.415-.987.74-1.619.74h-.001l-22.057.006-1.98-.005-7.235.005c-2.197 0-4.193-.96-5.638-2.41l.007-.01a8.02 8.02 0 0 1-2.361-5.648h.005a7.956 7.956 0 0 1 2.332-5.65l.017-.005c1.445-1.446 3.443-2.533 5.633-2.54l.003.007 5.698-.004c1.892 0 3.424-1.355 3.424-3.256A3.422 3.422 0 0 0 20.527 0h-5.706C10.749.003 7.04 1.673 4.357 4.367v.008A14.852 14.852 0 0 0 0 14.867h.005L0 14.872a14.831 14.831 0 0 0 4.357 10.495l.01-.008c2.687 2.7 6.395 4.286 10.464 4.284h7.243l1.965-.002h22.064l.01.002c2.491-.01 4.773-.95 6.43-2.6 1.653-1.665 2.69-3.96 2.68-6.47 0-2.506-1.027-4.734-2.677-6.391" mask="url(#b)"/></g>
    </symbol>
    <symbol id="icon-telega" viewbox="0 0 30 30">
      
    </symbol>
    <symbol id="icon-user_icon" viewbox="0 0 28 36">
      <g fill-rule="evenodd"><mask id="b"><use xlink:href="#a"/></mask><path d="M13.86 16.83c4.237 0 7.634-4.804 7.634-9.083C21.494 3.47 18.058 0 13.82 0S6.148 3.469 6.148 7.747c0 4.279 3.475 9.084 7.712 9.084zm13.835 14.405c0-6.064-4.922-10.98-10.994-10.98h-5.707C4.922 20.256 0 25.172 0 31.236l.026 1.299A3.07 3.07 0 0 0 3.098 35.6H24.65a3.07 3.07 0 0 0 3.072-3.067l-.027-1.299z" mask="url(#b)"/></g>
    </symbol>
    <symbol id="icon-visa" viewbox="0 0 56 19">
      <path d="M36.606 0c-4.472 0-7.62 2.378-7.646 5.782-.03 2.52 2.247 3.923 3.962 4.76 1.762.858 2.354 1.408 2.347 2.174-.013 1.175-1.406 1.692-2.709 1.712-2.274.036-3.595-.614-4.647-1.105l-.82 3.833c1.057.485 3.009.909 5.033.93 4.754 0 7.863-2.348 7.878-5.986.02-4.616-6.384-4.87-6.34-6.933.014-.627.612-1.294 1.92-1.465.647-.085 2.435-.15 4.46.782L40.84.776C39.75.38 38.35 0 36.606 0zm11.879.32a2.06 2.06 0 0 0-1.927 1.283l-6.79 16.209h4.75l.945-2.613h5.805l.547 2.613H56L52.347.32h-3.862zm.663 4.726l1.37 6.568h-3.753l2.383-6.568zM23.203.32L19.46 17.812h4.526L27.728.32h-4.525zm-6.694 0l-4.71 11.905L9.893 2.103C9.671.973 8.788.32 7.807.32h-7.7L0 .827c1.58.344 3.376.898 4.464 1.488.666.362.856.677 1.075 1.537l3.608 13.96h4.783L21.262.32h-4.753z" fill-rule="evenodd"/>
    </symbol>
    <symbol id="icon-vk" viewbox="0 0 30 30">
      
    </symbol>
    <symbol id="icon-yandex-money" viewbox="0 0 100 19">
      <g fill-rule="evenodd"><mask id="b"><use xlink:href="#a"/></mask><path d="M30.16 6.105c1.026 0 1.345 1.436 1.345 3.395h-2.94c.114-2.05.501-3.395 1.596-3.395zm.525 8.817c-1.414 0-2.143-1.367-2.143-3.964h4.787v-.98c0-3.895-1.254-5.33-3.168-5.33-2.44 0-3.465 2.688-3.465 6.379 0 3.53 1.459 5.421 3.83 5.421 1.139 0 2.097-.364 2.826-.934l-.41-1.366c-.456.319-1.254.774-2.257.774zM41.49 4.807h-1.801l-2.758 5.308V4.807h-1.778v11.482h1.778V10.57l3.031 5.719H41.9l-3.26-6.083 2.85-5.4zm4.627 10.16c-1.436 0-2.12-1.64-2.12-4.51 0-2.893.912-4.329 2.189-4.329.73 0 1.413.388 1.892.798l.25-1.687c-.5-.318-1.094-.592-2.12-.592-2.69 0-4.08 2.301-4.08 5.901 0 3.919 1.482 5.9 3.944 5.9 1.048 0 1.778-.341 2.393-.865l-.41-1.321c-.41.364-1.072.706-1.938.706zm21.873-5.08h-4.172c.091-2.87 1.072-4.42 2.28-4.42 1.163 0 2.074 1.368 1.892 4.42zm-1.892-5.308c-1.938 0-3.351 2.21-3.351 5.97 0 3.757 1.117 5.967 3.556 5.967 1.824 0 2.69-1.298 2.69-1.298l-.342-.865s-.798 1.23-2.325 1.23c-1.664 0-2.485-1.709-2.53-4.852h5.197c.364-4.079-.912-6.152-2.895-6.152zm9.917 5.308h-3.92v-5.08h-1.072v11.482h1.072v-5.536h3.92v5.536h1.072V4.807h-1.072v5.08zm5.36 5.559h-.685V9.91h.798c1.641 0 2.599.82 2.599 2.757 0 1.982-1.094 2.779-2.713 2.779zm.16-6.379h-.845v-4.26h-1.07v11.482h1.845c2.166 0 3.67-1.208 3.67-3.645 0-2.392-1.413-3.577-3.6-3.577zm-22.187 6.288h-5.083c.615-.752.98-2.37 1.185-4.807.182-2.347.297-5.49.365-9.614h3.533v14.421zM60.488 0h-5.699c-.068 4.533-.137 8.133-.365 10.548-.227 2.324-.615 4.146-1.413 4.807h-.479V19h.89l.16-2.711h6.974l.16 2.711h.89v-3.645h-1.118V0zM6.268 8.589h-.934c-1.527 0-2.78-.843-2.78-3.463 0-2.711 1.367-3.645 2.78-3.645h.935v7.108zM.662 5.126c0 2.438.957 3.759 2.394 4.488L0 16.289h2.029l2.78-6.242h1.46v6.242h1.755V0H5.403C2.827 0 .66 1.709.66 5.126zm14.067 4.556h-2.644V4.807h-1.778v11.482h1.778V11.14h2.644v5.149h1.755V4.807h-1.755v4.875zM98.93 4.807l-3.739 8.065c-.228.5-.456 1.002-.615 1.526h-.068c.045-.501.091-1.003.091-1.618V4.807h-1.003v11.482h.912L98.246 8.2c.25-.5.456-.98.615-1.48h.07c-.047.478-.092.98-.092 1.572v7.996h1.025V4.807h-.934zM22.957 14.83h-3.054c.957-2.438 1.07-5.969 1.07-8.384v-.205h1.984v8.589zm1.755-10.024h-5.334v.98c0 3.052-.114 6.606-1.162 9.044h-.707v3.713h1.596V16.29h4.924v2.255h1.595v-3.713h-.912V4.807zm62.272 11.482h1.047V5.696h3.808v-.89h-4.855V16.29z" mask="url(#b)"/></g>
    </symbol></svg>