<?xml version="1.0" encoding="UTF-8"?>
<svg width="51px" height="33px" viewBox="0 0 51 33" version="1.1" xmlns="http://www.w3.org/2000/svg" xmlns:xlink="http://www.w3.org/1999/xlink">
    <!-- Generator: Sketch 42 (36781) - http://www.bohemiancoding.com/sketch -->
    <title>Clip 2</title>
    <desc>Created with Sketch.</desc>
    <defs>
        <polygon id="path-1" points="50.987556 32.3282143 0 32.3282143 0 0.000471428571 50.987556 0.000471428571"></polygon>
    </defs>
    <g id="Symbols" stroke="none" stroke-width="1" fill="none" fill-rule="evenodd">
        <g id="Clip-2">
            <mask id="mask-2" fill="white">
                <use xlink:href="#path-1"></use>
            </mask>
            <g></g>
            <path d="M27.093036,14.243002 C26.529996,14.7103898 25.733716,14.947451 24.721876,14.947451 C24.443756,14.947451 24.180596,14.9353286 23.939196,14.9131041 C23.739276,14.8942469 23.554996,14.8632673 23.388396,14.8215122 L23.388396,9.7624102 C23.533236,9.7361449 23.712076,9.71122653 23.923556,9.68832857 C24.190116,9.66004286 24.512436,9.6459 24.880996,9.6459 C25.337276,9.6459 25.759556,9.69977755 26.134236,9.80685918 C26.504836,9.91192041 26.828516,10.0701857 27.097116,10.2735735 C27.360276,10.4756143 27.566996,10.7389408 27.710476,11.0554714 C27.855316,11.3753694 27.928756,11.7585735 27.928756,12.1909408 C27.928756,13.0913694 27.646556,13.781002 27.093036,14.243002 L27.093036,14.243002 Z M28.100796,9.69910408 C27.758756,9.37179796 27.316076,9.11722653 26.787716,8.94212449 C26.263436,8.76904286 25.633756,8.68149184 24.916356,8.68149184 C24.420636,8.68149184 23.958236,8.70506327 23.540036,8.75287959 C23.128636,8.79934898 22.745116,8.85255306 22.402396,8.9111449 L22.290876,8.93000204 L22.290876,20.8281857 L23.388396,20.8281857 L23.388396,15.8162265 C23.758316,15.8788592 24.180596,15.9118592 24.646396,15.9118592 C25.267236,15.9118592 25.849316,15.8323898 26.375636,15.6781653 C26.907396,15.5219204 27.373196,15.2814918 27.760796,14.9615939 C28.150436,14.6423694 28.461196,14.2416551 28.686956,13.7709 C28.911356,13.2994714 29.025596,12.7445327 29.025596,12.1215735 C29.025596,11.6056959 28.943316,11.1416755 28.782156,10.7423082 C28.620316,10.3422673 28.391836,9.99206327 28.100796,9.69910408 L28.100796,9.69910408 Z M34.466956,18.0184714 C34.466956,18.1343082 34.439076,18.2939204 34.386036,18.4845122 C34.318036,18.6831857 34.219436,18.8791653 34.090916,19.0657163 C33.963756,19.2515939 33.802596,19.4206347 33.612876,19.5694714 C33.424516,19.7183082 33.198756,19.8368388 32.942396,19.9250633 C32.686036,20.0126143 32.389556,20.0577367 32.063156,20.0577367 C31.865276,20.0577367 31.670796,20.0247367 31.485156,19.9600837 C31.301556,19.8961041 31.138356,19.799798 30.998956,19.6725122 C30.859556,19.5459 30.745316,19.3815735 30.657596,19.1829 C30.571236,18.9855735 30.527716,18.7411041 30.527716,18.4569 C30.527716,17.9908592 30.653516,17.6137163 30.902396,17.3375939 C31.158756,17.0506959 31.487876,16.829798 31.879556,16.6809612 C32.279396,16.5287571 32.724116,16.4284102 33.200796,16.3832878 C33.589076,16.3462469 33.968516,16.3280633 34.328916,16.3280633 C34.375156,16.3280633 34.421396,16.3280633 34.466956,16.3287367 L34.466956,18.0184714 Z M35.580796,19.7129204 C35.569236,19.3761857 35.563796,19.0381041 35.563796,18.7013694 L35.563796,15.3946347 C35.563796,15.0026755 35.523676,14.6026347 35.445476,14.2052878 C35.365916,13.7998592 35.212916,13.4274306 34.991236,13.0987776 C34.768196,12.7674306 34.456076,12.4933286 34.065756,12.2852265 C33.675436,12.0771245 33.168156,11.9720633 32.556836,11.9720633 C32.110756,11.9720633 31.674876,12.0299816 31.263476,12.1431245 C30.848676,12.2576143 30.442716,12.4495531 30.053756,12.7135531 L29.964676,12.7741653 L30.335276,13.6328388 L30.469236,13.5432673 C30.752116,13.3540224 31.071036,13.2031653 31.418516,13.0960837 C31.765316,12.990349 32.118916,12.9364714 32.470476,12.9364714 C32.927436,12.9364714 33.292596,13.0179612 33.553036,13.1802673 C33.817556,13.3432469 34.016796,13.5466347 34.145316,13.7830224 C34.279276,14.0274918 34.366996,14.287451 34.405756,14.5575122 C34.446556,14.838349 34.466956,15.0895531 34.466956,15.3050633 L34.466956,15.4013694 C32.841076,15.3939612 31.571516,15.6613286 30.728316,16.1994306 C29.843636,16.763798 29.394836,17.5679204 29.394836,18.5868796 C29.394836,18.8805122 29.447876,19.1761653 29.552596,19.468451 C29.658676,19.7641041 29.819836,20.0287776 30.030636,20.2550633 C30.243476,20.4840429 30.516836,20.6705939 30.845276,20.810002 C31.171676,20.9507571 31.555196,21.0214714 31.984276,21.0214714 C32.324276,21.0214714 32.643196,20.9783694 32.932876,20.8941857 C33.219836,20.8086551 33.480276,20.6955122 33.707396,20.5547571 C33.933156,20.4166959 34.133756,20.260451 34.304436,20.0907367 C34.381956,20.0153082 34.447916,19.9392061 34.513196,19.8631041 L34.556036,19.8631041 L34.656676,20.8281857 L35.714076,20.8281857 L35.684836,20.6732878 C35.627716,20.3655122 35.593036,20.0429204 35.580796,19.7129204 L35.580796,19.7129204 Z M40.978636,17.6756755 C40.850796,18.0083694 40.731796,18.3437571 40.622316,18.6697163 C40.569276,18.8326959 40.518956,18.9869204 40.469996,19.1344102 L40.431236,19.1344102 C40.382276,18.9801857 40.330596,18.8212469 40.274836,18.6528796 C40.168756,18.3289408 40.054516,18.0124102 39.937556,17.709349 L37.748636,12.1646755 L36.578356,12.1646755 L39.709076,20.1365327 C39.791356,20.3284714 39.802916,20.4166959 39.802916,20.4523898 C39.802916,20.4624918 39.799516,20.5284918 39.707716,20.7702673 C39.512556,21.2477571 39.288156,21.6599204 39.043356,21.9939612 C38.792436,22.3320429 38.562596,22.6068184 38.357916,22.8095327 C38.120596,23.0445735 37.874436,23.2378592 37.624876,23.384002 C37.369876,23.5328388 37.137316,23.6540633 36.931956,23.7443082 L36.813636,23.7975122 L37.194436,24.715451 L37.315476,24.6703286 C37.415436,24.6339612 37.601076,24.5497776 37.883956,24.4130633 C38.169556,24.2736551 38.485756,24.0520837 38.823036,23.7537367 C39.112716,23.5038796 39.377916,23.2068796 39.613196,22.8721653 C39.844396,22.5435122 40.075596,22.1582878 40.302716,21.7292878 C40.527116,21.3016347 40.751516,20.8153898 40.970476,20.2826755 C41.189436,19.7472673 41.424716,19.1485531 41.668156,18.5053898 L44.196396,12.1646755 L43.025436,12.1646755 L40.978636,17.6756755 Z M50.307556,27.806002 C50.307556,27.9770633 50.307556,28.147451 50.306196,28.3205327 C50.305516,28.4612878 50.303476,28.6013694 50.299396,28.741451 C50.292596,28.9993898 50.278316,29.3017776 50.225956,29.5913694 C50.176996,29.8587367 50.102196,30.0863694 49.989316,30.3065939 C49.875076,30.5281653 49.727516,30.7288592 49.550036,30.9046347 C49.372556,31.0810837 49.169236,31.2272265 48.946196,31.3396959 C48.724516,31.4514918 48.494676,31.5262469 48.224036,31.5740633 C47.926196,31.6265939 47.609316,31.6407367 47.369276,31.6474714 C47.225796,31.6508388 47.082996,31.6528592 46.938836,31.6535327 C46.766796,31.6548796 46.593396,31.6548796 46.421356,31.6548796 L4.559876,31.6548796 C4.389196,31.6548796 4.218516,31.6548796 4.045796,31.6535327 C3.902996,31.6528592 3.760196,31.6508388 3.620796,31.6474714 C3.378036,31.6407367 3.060476,31.6265939 2.764676,31.5740633 C2.491996,31.5262469 2.262836,31.4514918 2.039796,31.3390224 C1.817436,31.2272265 1.614116,31.0810837 1.436636,30.9039612 C1.259156,30.7288592 1.111596,30.5281653 0.998036,30.3065939 C0.885156,30.0863694 0.810356,29.8587367 0.760716,29.589349 C0.708356,29.2997571 0.694076,28.9987163 0.687276,28.741451 C0.683196,28.6006959 0.681836,28.4599408 0.680476,28.3198592 L0.679796,27.9090429 L0.679796,4.41910408 L0.680476,4.00896122 C0.681836,3.86820612 0.683196,3.72745102 0.687276,3.58669592 C0.694076,3.32943061 0.708356,3.0283898 0.761396,2.73745102 C0.810356,2.4694102 0.885156,2.24177755 0.998716,2.02155306 C1.111596,1.79998163 1.259156,1.59928776 1.437316,1.42351224 C1.614116,1.24773673 1.817436,1.10092041 2.040476,0.98845102 C2.262156,0.876655102 2.492676,0.802573469 2.763996,0.754083673 C3.057076,0.702226531 3.361716,0.687410204 3.620796,0.68067551 C3.762916,0.676634694 3.905036,0.675287755 4.047156,0.674614286 L4.565996,0.673940816 L46.421356,0.673940816 L46.939516,0.674614286 C47.081636,0.675287755 47.223756,0.676634694 47.365876,0.68067551 C47.624956,0.687410204 47.930276,0.702226531 48.222676,0.754083673 C48.494676,0.802573469 48.724516,0.876655102 48.946876,0.98912449 C49.169236,1.10092041 49.372556,1.24706327 49.549356,1.42283878 C49.727516,1.59928776 49.875076,1.8006551 49.989316,2.02222653 C50.102196,2.24177755 50.176996,2.4694102 50.225956,2.73879796 C50.278316,3.02636939 50.292596,3.32875714 50.299396,3.58669592 C50.303476,3.72677755 50.305516,3.86753265 50.306196,4.00963469 C50.307556,4.18069592 50.307556,4.35108367 50.307556,4.5221449 L50.307556,27.806002 Z M50.986196,4.00424694 C50.985516,3.85877755 50.983476,3.71330816 50.979396,3.56783878 C50.970556,3.25198163 50.952196,2.93208367 50.895076,2.61892041 C50.837956,2.30104286 50.743436,2.00471633 50.595196,1.71579796 C50.448996,1.43226735 50.257916,1.17230816 50.030796,0.947369388 C49.802996,0.721757143 49.541876,0.533185714 49.254916,0.389063265 C48.963196,0.241573469 48.664676,0.147961224 48.343716,0.0907163265 C48.026836,0.0348183673 47.704516,0.0159612245 47.384916,0.00720612245 C47.237356,0.00316530612 47.090476,0.00181836735 46.943596,0.00114489796 C46.770196,0.000471428571 46.595436,0.000471428571 46.421356,0.000471428571 L4.565996,0.000471428571 C4.391916,0.000471428571 4.217156,0.000471428571 4.043756,0.00114489796 C3.896196,0.00181836735 3.749316,0.00316530612 3.602436,0.00720612245 C3.282156,0.0159612245 2.959836,0.0348183673 2.643636,0.0907163265 C2.322676,0.147961224 2.024156,0.241573469 1.732436,0.389063265 C1.445476,0.533185714 1.182996,0.721757143 0.955876,0.947369388 C0.728756,1.17230816 0.537676,1.43226735 0.392156,1.71579796 C0.243916,2.00471633 0.149396,2.30104286 0.092276,2.61892041 C0.035156,2.93208367 0.016116,3.25198163 0.007276,3.56783878 C0.003196,3.71330816 0.001836,3.85877755 0.000476,4.00424694 C-0.000204,4.17732857 -0.000204,4.34973673 -0.000204,4.5221449 L-0.000204,27.806002 C-0.000204,27.9790837 -0.000204,28.1508184 0.000476,28.3239 C0.001836,28.4693694 0.003196,28.6148388 0.007276,28.7603082 C0.016116,29.0761653 0.035156,29.3960633 0.092276,29.7092265 C0.149396,30.0271041 0.243916,30.3234306 0.392156,30.612349 C0.537676,30.8965531 0.728756,31.1558388 0.955876,31.3807776 C1.182996,31.6063898 1.445476,31.7949612 1.732436,31.9390837 C2.024156,32.0865735 2.322676,32.1801857 2.643636,32.2374306 C2.959836,32.2933286 3.282156,32.3121857 3.602436,32.3209408 C3.749316,32.3243082 3.896196,32.3263286 4.043756,32.327002 C4.217156,32.328349 4.391916,32.328349 4.565996,32.328349 L46.421356,32.328349 C46.595436,32.328349 46.770196,32.328349 46.943596,32.327002 C47.090476,32.3263286 47.237356,32.3243082 47.384916,32.3209408 C47.704516,32.3121857 48.026836,32.2933286 48.343716,32.2374306 C48.664676,32.1801857 48.963196,32.0865735 49.254916,31.9390837 C49.541876,31.7949612 49.802996,31.6063898 50.030796,31.3807776 C50.257916,31.1558388 50.448996,30.8965531 50.595196,30.612349 C50.743436,30.3234306 50.837956,30.0271041 50.895076,29.7092265 C50.952196,29.3960633 50.970556,29.0761653 50.979396,28.7603082 C50.983476,28.6148388 50.985516,28.4693694 50.986196,28.3239 C50.987556,28.1508184 50.987556,27.9790837 50.987556,27.806002 L50.987556,4.5221449 C50.987556,4.34973673 50.987556,4.17732857 50.986196,4.00424694 L50.986196,4.00424694 Z M15.202556,9.69977755 C15.672436,9.13406327 15.989996,8.34947143 15.904316,7.56622653 C15.224316,7.59383878 14.401516,8.01677755 13.918036,8.57912449 C13.479436,9.07883878 13.099996,9.87892041 13.204716,10.646002 C13.960876,10.7039204 14.731316,10.2648184 15.202556,9.69977755 L15.202556,9.69977755 Z M17.156196,14.6652673 C17.140556,12.9728388 18.550196,12.1586143 18.614796,12.1182061 C17.819876,10.9733082 16.587716,10.8143694 16.147756,10.7968592 C15.097156,10.6931449 14.096196,11.4097163 13.564436,11.4097163 C13.031316,11.4097163 12.211236,10.8130224 11.338116,10.8312061 C10.192996,10.8473694 9.137636,11.4898592 8.547396,12.5047776 C7.360116,14.5548184 8.246156,17.5807163 9.404196,19.2381245 C9.971316,20.0496551 10.645876,20.9615327 11.535316,20.9285327 C12.390756,20.8955327 12.711716,20.3796551 13.744636,20.3796551 C14.776876,20.3783082 15.067916,20.9271857 15.969596,20.9110224 C16.888956,20.8914918 17.473076,20.0826551 18.036116,19.2670837 C18.684156,18.3275939 18.952076,17.4150429 18.966356,17.3692469 C18.947996,17.3584714 17.176596,16.6890429 17.156196,14.6652673 L17.156196,14.6652673 Z" id="Fill-1" fill="#9B9B9B" mask="url(#mask-2)"></path>
        </g>
    </g>
</svg>