<?xml version="1.0" encoding="UTF-8"?>
<svg width="118px" height="67px" viewBox="0 0 118 67" version="1.1" xmlns="http://www.w3.org/2000/svg" xmlns:xlink="http://www.w3.org/1999/xlink">
    <!-- Generator: Sketch 42 (36781) - http://www.bohemiancoding.com/sketch -->
    <title>01</title>
    <desc>Created with Sketch.</desc>
    <defs>
        <polygon id="path-1" points="8.7407502e-15 66.1237451 8.7407502e-15 0.000262745098 117.070584 0.000262745098 117.070584 66.1237451 0 66.1237451"></polygon>
        <linearGradient x1="5.38793103%" y1="90.8605239%" x2="100%" y2="14.84375%" id="linearGradient-3">
            <stop stop-color="#FFD520" offset="0%"></stop>
            <stop stop-color="#F50400" offset="36.7572611%"></stop>
            <stop stop-color="#B900B4" offset="100%"></stop>
        </linearGradient>
    </defs>
    <g id="Symbols" stroke="none" stroke-width="1" fill="none" fill-rule="evenodd">
        <g id="01">
            <g>
                <mask id="mask-2" fill="white">
                    <use xlink:href="#path-1"></use>
                </mask>
                <g id="Clip-2"></g>
                <path d="M115.970665,31.193098 L53.5221483,0.189176471 C53.2556539,0.0735686275 52.9122607,0 52.5768225,0 C52.0464854,0 51.5744854,0.179980392 51.2456764,0.505784314 C50.9248225,0.822392157 50.2300809,1.68682353 50.6994292,2.84815686 L61.5686876,29.3801569 L62.1984629,30.9172157 L2.05426067,30.9172157 C0.960440449,30.9172157 -0.000795505618,31.8683529 -0.000795505618,32.9534902 C-0.000795505618,34.0373137 0.960440449,34.9897647 2.05426067,34.9897647 L65.2969573,34.9897647 C66.1189798,34.9897647 66.6705303,34.4931765 66.9966876,34.0583333 C67.3467101,33.4238039 67.4130022,32.7538039 67.1770022,32.2099216 L57.6243056,9.07258824 L56.4814292,6.30194118 L59.1768674,7.65245098 L107.967879,32.0877451 L109.961946,33.0848627 L107.966553,34.0819804 L59.0429573,58.5172745 L56.3594517,59.8572745 L57.4917213,57.0997647 L60.9375865,48.6906078 C61.1430921,48.2005882 61.1391146,47.6619608 60.9269798,47.1653725 C60.7135191,46.6635294 60.3223955,46.2746667 59.8252045,46.0697255 C59.5905303,45.9738235 59.3412719,45.923902 59.0867101,45.923902 C58.2673393,45.923902 57.5049798,46.4283725 57.1894292,47.1771961 L50.7007551,63.3189412 C50.3759236,64.0441176 50.5946876,64.9860588 51.2019236,65.6205882 C51.6633169,65.9739804 52.0756539,66.1237451 52.5701933,66.1237451 C52.8724854,66.1237451 53.0965528,66.0593725 53.5221483,65.8478627 L115.971991,34.9753137 C116.649497,34.639 117.071115,33.9637451 117.071115,33.2162353 L117.071115,32.9534902 C117.071115,32.2046667 116.649497,31.5294118 115.970665,31.193098 M44.0834742,45.2368235 L23.2677438,45.2368235 C22.1739236,45.2368235 21.2126876,46.1879608 21.2126876,47.2717843 C21.2126876,48.3569216 22.1739236,49.3080588 23.2677438,49.3080588 L44.0834742,49.3080588 C45.1772944,49.3080588 46.1385303,48.3569216 46.1385303,47.2717843 C46.1385303,46.1117647 45.2555191,45.2368235 44.0834742,45.2368235 M6.69471011,23.5590392 L39.9746876,23.5590392 C41.0685079,23.5590392 42.0270921,22.607902 42.0270921,21.5240784 C42.0270921,20.4389412 41.0685079,19.4878039 39.9746876,19.4878039 L6.69471011,19.4878039 C5.60088989,19.4878039 4.63965393,20.4389412 4.63965393,21.5240784 C4.63965393,22.607902 5.60088989,23.5590392 6.69471011,23.5590392" id="Fill-1" fill="url(#linearGradient-3)" mask="url(#mask-2)"></path>
            </g>
        </g>
    </g>
</svg>