<?xml version="1.0" encoding="UTF-8"?>
<svg width="78px" height="79px" viewBox="0 0 78 79" version="1.1" xmlns="http://www.w3.org/2000/svg" xmlns:xlink="http://www.w3.org/1999/xlink">
    <!-- Generator: Sketch 42 (36781) - http://www.bohemiancoding.com/sketch -->
    <title>02</title>
    <desc>Created with Sketch.</desc>
    <defs>
        <linearGradient x1="5.38793103%" y1="90.8605239%" x2="100%" y2="14.84375%" id="linearGradient-1">
            <stop stop-color="#FFD520" offset="0%"></stop>
            <stop stop-color="#F50400" offset="36.7572611%"></stop>
            <stop stop-color="#B900B4" offset="100%"></stop>
        </linearGradient>
    </defs>
    <g id="Symbols" stroke="none" stroke-width="1" fill="none" fill-rule="evenodd">
        <g id="02" fill-rule="nonzero" fill="url(#linearGradient-1)">
            <g id="Shape">
                <path d="M1.8125,0.36218 C0.829332,0.454841 -0.004258,1.374665 6.72795119e-14,2.36218 L6.72795119e-14,34.36218 C0.0042,34.884217 0.222534,35.401362 0.59375,35.76843 C0.59375,35.76843 41.466359,76.90053 41.34375,76.76843 C42.254616,77.74963 43.564479,78.36218 45,78.36218 C46.48654,78.36218 47.835666,77.68633 48.75,76.64343 C48.630518,76.77973 66.604974,58.81078 70.625,54.79968 C71.364389,54.054062 71.361558,52.704393 70.619,51.961882 C69.876489,51.219372 68.52682,51.216541 67.781202,51.955882 C63.759825,55.968382 45.91031,73.835482 45.749952,74.018382 C45.564612,74.22993 45.312712,74.36218 45,74.36218 C44.698017,74.36218 44.466096,74.24878 44.28125,74.04968 C44.096517,73.85068 4.56478,34.11728 4,33.54968 L4,4.36218 L33.1875,4.36218 C33.755371,4.92811 73.4483,44.47023 73.65625,44.64343 C73.881663,44.83073 74,45.05738 74,45.36218 C74,45.66908 73.861084,45.92698 73.65625,46.11218 C72.879033,46.815766 72.81204,48.163088 73.515626,48.940304 C74.219211,49.717521 75.566533,49.784516 76.34375,49.08093 C77.353498,48.16793 78,46.82138 78,45.36218 C78,43.86868 77.322064,42.50858 76.28125,41.61218 C76.29893,41.62918 35.40625,0.95593 35.40625,0.95593 C35.039182,0.584714 34.522037,0.366364 34,0.36218 L2,0.36218 C1.93755,0.35928 1.874954,0.35928 1.8125,0.36218 Z M14,8.36218 C10.709981,8.36218 8,11.07216 8,14.36218 C8,17.6522 10.709981,20.36218 14,20.36218 C17.290019,20.36218 20,17.6522 20,14.36218 C20,11.07216 17.290019,8.36218 14,8.36218 Z M14,12.36218 C15.128259,12.36218 16,13.23392 16,14.36218 C16,15.49044 15.128259,16.36218 14,16.36218 C12.871741,16.36218 12,15.49044 12,14.36218 C12,13.23392 12.871741,12.36218 14,12.36218 Z M41.78125,23.33093 C40.798498,23.438925 39.978736,24.37374 40,25.36218 L40,27.61218 C36.055115,28.517934 33,32.007889 33,36.36218 C33,38.97308 34.509794,41.00808 36.21875,42.11218 C37.927706,43.21628 39.786714,43.70988 41.34375,44.23718 C43.012209,44.80218 44.640329,45.31973 45.625,45.95593 C46.609671,46.59203 47,47.02638 47,48.36218 C47,51.33618 44.802549,53.36218 42,53.36218 C39.633419,53.36208 37.418389,51.63603 36.9375,49.83093 C36.667519,48.816457 35.498848,48.139075 34.484375,48.409056 C33.469903,48.679036 32.792519,49.847707 33.0625,50.86218 C33.921293,54.085973 36.692428,56.481886 40,57.17468 L40,59.36218 C39.98506,60.418805 40.943269,61.390664 42,61.390664 C43.056731,61.390664 44.014943,60.418805 44,59.36218 L44,57.14343 C47.944903,56.237689 51,52.716436 51,48.36218 C51,45.75128 49.490205,43.71628 47.78125,42.61218 C46.072295,41.50808 44.213286,40.98313 42.65625,40.45593 C40.987791,39.89083 39.35967,39.37338 38.375,38.73718 C37.39033,38.10098 37,37.69798 37,36.36218 C37,33.3881 39.197408,31.36221 42,31.36218 C44.366588,31.36227 46.581615,33.05702 47.0625,34.86218 C47.332297,35.876852 48.501124,36.554495 49.515737,36.284477 C50.530351,36.014459 51.207739,34.845485 50.9375,33.83093 C50.078704,30.607154 47.307569,28.266582 44,27.58093 L44,25.36218 C44.02444,24.22763 42.90924,23.206672 41.78125,23.33093 Z"></path>
            </g>
        </g>
    </g>
</svg>