<?xml version="1.0" encoding="UTF-8"?>
<svg width="30px" height="30px" viewBox="0 0 30 30" version="1.1" xmlns="http://www.w3.org/2000/svg" xmlns:xlink="http://www.w3.org/1999/xlink">
    <!-- Generator: Sketch 42 (36781) - http://www.bohemiancoding.com/sketch -->
    <title>Copyright Glyph</title>
    <desc>Created with Sketch.</desc>
    <defs>
        <polygon id="path-1" points="0 -7.14285714e-05 0 29.6476429 29.6475714 29.6476429 29.6475714 -7.14285714e-05 1.93607531e-20 -7.14285714e-05"></polygon>
    </defs>
    <g id="Symbols" stroke="none" stroke-width="1" fill="none" fill-rule="evenodd">
        <g id="Copyright-Glyph">
            <g>
                <mask id="mask-2" fill="white">
                    <use xlink:href="#path-1"></use>
                </mask>
                <g id="Clip-2"></g>
                <path d="M20.8368571,18.0835 L20.8361429,18.0827857 C20.3582857,17.8070714 19.7668571,17.9513571 19.429,18.3877857 C18.1961429,19.9777857 16.1604286,20.9149286 13.9347143,20.5835 C11.3711429,20.2020714 9.32257143,18.0670714 9.03471429,15.4906429 C8.64328571,11.9806429 11.3911429,8.99707143 14.824,8.99707143 C16.6961429,8.99707143 18.3647143,9.88564286 19.4311429,11.2627857 C19.7675714,11.6977857 20.3582857,11.8392143 20.834,11.5642143 C21.4047143,11.2349286 21.5368571,10.4806429 21.1347143,9.95921429 C19.4275714,7.74635714 16.5832857,6.45635714 13.4761429,6.96564286 C10.0211429,7.53135714 7.30042857,10.4163571 6.90685714,13.8949286 C6.36257143,18.7120714 10.1161429,22.7927857 14.824,22.7927857 C17.419,22.7927857 19.7225714,21.5520714 21.1782857,19.6320714 C21.559,19.1292143 21.384,18.3992143 20.8368571,18.0835 M14.824,27.5049286 C7.83185714,27.5049286 2.14257143,21.8163571 2.14257143,14.8242143 C2.14257143,7.83135714 7.83185714,2.14278571 14.824,2.14278571 C21.8161429,2.14278571 27.5047143,7.83135714 27.5047143,14.8242143 C27.5047143,21.8163571 21.8161429,27.5049286 14.824,27.5049286 M14.824,-7.14285714e-05 C6.63685714,-7.14285714e-05 -0.000285714286,6.63707143 -0.000285714286,14.8242143 C-0.000285714286,23.0106429 6.63685714,29.6477857 14.824,29.6477857 C23.0111429,29.6477857 29.6475714,23.0106429 29.6475714,14.8242143 C29.6475714,6.63707143 23.0111429,-7.14285714e-05 14.824,-7.14285714e-05" id="Fill-1" fill="#FFFFFF" mask="url(#mask-2)"></path>
            </g>
        </g>
    </g>
</svg>