<?xml version="1.0" encoding="UTF-8"?>
<svg width="88px" height="89px" viewBox="0 0 88 89" version="1.1" xmlns="http://www.w3.org/2000/svg" xmlns:xlink="http://www.w3.org/1999/xlink">
    <!-- Generator: Sketch 42 (36781) - http://www.bohemiancoding.com/sketch -->
    <title>03</title>
    <desc>Created with Sketch.</desc>
    <defs>
        <linearGradient x1="5.38793103%" y1="90.8605239%" x2="100%" y2="14.84375%" id="linearGradient-1">
            <stop stop-color="#FFD520" offset="0%"></stop>
            <stop stop-color="#F50400" offset="36.7572611%"></stop>
            <stop stop-color="#B900B4" offset="100%"></stop>
        </linearGradient>
    </defs>
    <g id="Symbols" stroke="none" stroke-width="1" fill="none" fill-rule="evenodd">
        <g id="03" fill-rule="nonzero" fill="url(#linearGradient-1)">
            <g id="Shape">
                <path d="M44,0.36218 C19.72316,0.36218 0,20.08529 0,44.36218 C0,68.63908 19.723162,88.36218 44,88.36218 C68.276842,88.36218 88,68.63908 88,44.36218 C88,22.91458 72.625395,5.01961 52.28125,1.14343 C51.5489245,0.919691343 50.7531336,1.13368603 50.231793,1.69454573 C49.7104525,2.25540544 49.5550708,3.06468503 49.8316275,3.77874102 C50.1081843,4.49279701 50.7681367,4.98629442 51.53125,5.04968 C70.017713,8.57192 84,24.8244 84,44.36218 C84,66.47728 66.115086,84.36218 44,84.36218 C21.884918,84.36218 4,66.47728 4,44.36218 C4,22.24705 21.88492,4.36218 44,4.36218 C44.7212718,4.37238058 45.3921627,3.99342941 45.7557754,3.3704343 C46.1193882,2.74743919 46.1193882,1.97692081 45.7557754,1.3539257 C45.3921627,0.730930592 44.7212718,0.351979421 44,0.36218 Z M46.78125,27.33093 C45.7508578,27.4441601 44.9777057,28.3258248 45,29.36218 L45,41.20593 L26.15625,27.73718 C25.776257,27.4621445 25.3116873,27.3294103 24.84375,27.36218 C23.8006684,27.444013 22.9968995,28.3158979 23,29.36218 L23,59.36218 C23.0027147,60.1086769 23.4209015,60.7915422 24.0846037,61.1332502 C24.7483059,61.4749583 25.5470632,61.4186385 26.15625,60.98718 L45,47.51843 L45,59.36218 C45.0106066,60.0979474 45.4243415,60.7684763 46.0771945,61.1079599 C46.7300474,61.4474434 47.5165801,61.4010536 48.125,60.98718 L70.125,45.98718 C70.6613692,45.6131132 70.9810192,45.00048 70.9810192,44.346555 C70.9810192,43.69263 70.6613692,43.0799968 70.125,42.70593 L56.1875,33.17468 C55.5957804,32.7725843 54.8344777,32.716761 54.1904343,33.0282433 C53.5463909,33.3397255 53.1174794,33.9711785 53.0653044,34.6846845 C53.0131294,35.3981906 53.3456196,36.085321 53.9375,36.48718 L65.46875,44.36218 L49,55.58093 L49,29.36218 C49.0124076,28.7861877 48.7758491,28.2328167 48.3509071,27.8437853 C47.9259651,27.4547539 47.3539119,27.2678465 46.78125,27.33093 L46.78125,27.33093 Z M27,33.23718 L42.5625,44.36218 L27,55.48718 L27,33.23718 Z"></path>
            </g>
        </g>
    </g>
</svg>