<?xml version="1.0" encoding="UTF-8"?>
<svg width="86px" height="32px" viewBox="0 0 86 32" version="1.1" xmlns="http://www.w3.org/2000/svg" xmlns:xlink="http://www.w3.org/1999/xlink">
    <!-- Generator: Sketch 42 (36781) - http://www.bohemiancoding.com/sketch -->
    <title>flwrs.</title>
    <desc>Created with Sketch.</desc>
    <defs></defs>
    <g id="Welcome" stroke="none" stroke-width="1" fill="none" fill-rule="evenodd">
        <g id="FLWRS-Mainframe" transform="translate(-38.000000, -663.000000)" fill="#FFFFFF">
            <g id="Main">
                <g id="Menu" transform="translate(0.000000, 639.000000)">
                    <g id="flwrs." transform="translate(38.000000, 24.000000)">
                        <path d="M23.202,20.528 L22.446,25.82 C17.262,27.116 13.914,23.768 14.598,19.016 L17.19,0.512 L23.274,0.512 L20.682,18.944 C20.538,20.06 21.33,20.96 23.202,20.528 Z M2.934,31.832 L0.558,27.944 C2.178,26.792 2.214,25.892 2.286,25.316 L4.77,7.676 C5.562,2.024 10.026,-0.316 14.994,0.404 L14.238,5.912 C12.33,5.444 10.89,6.488 10.71,7.676 L10.602,8.288 L13.734,8.288 L12.978,13.652 L9.846,13.652 L8.226,25.316 C7.902,27.764 6.21,29.96 2.934,31.832 Z M34.002,26 L27.774,26 L24.966,7.352 L31.086,7.352 L31.914,15.452 L31.986,19.34 L32.058,19.34 L35.874,7.352 L40.95,7.352 L41.454,19.34 L41.562,19.34 L42.678,15.452 L45.738,7.352 L51.894,7.352 L43.866,26 L37.638,26 L37.026,21.428 L36.954,18.224 L36.846,18.224 L35.838,21.428 L34.002,26 Z M60.966,6.992 C61.614,6.992 62.514,7.064 64.026,7.46 L63.306,12.536 C61.686,11.96 58.806,12.284 58.518,14.336 L56.898,26 L50.814,26 L52.434,14.264 C53.118,9.188 56.466,6.992 60.966,6.992 Z M63.09,23.444 L66.366,19.736 C67.518,20.708 69.03,21.212 70.254,21.104 C71.55,20.996 71.478,19.412 70.146,19.34 C65.934,18.584 64.53,15.524 64.89,12.788 C65.286,9.62 67.986,6.992 72.234,6.992 C73.926,6.992 76.194,7.46 78.246,9.368 L74.97,13.22 C72.882,12.14 71.406,12.104 71.082,12.86 C70.722,13.688 71.802,14.156 72.486,14.3 C74.862,14.804 77.742,16.28 77.202,20.168 C76.626,24.416 73.206,26.36 69.642,26.36 C67.194,26.36 64.962,25.82 63.09,23.444 Z M78.75,22.58 C78.462,24.596 79.83,26.216 81.81,26.216 C83.79,26.216 85.626,24.596 85.914,22.58 C86.202,20.6 84.798,19.016 82.818,19.016 C80.838,19.016 79.038,20.6 78.75,22.58 Z"></path>
                    </g>
                </g>
            </g>
        </g>
    </g>
</svg>