<?xml version="1.0" encoding="UTF-8"?>
<svg width="30px" height="30px" viewBox="0 0 30 30" version="1.1" xmlns="http://www.w3.org/2000/svg" xmlns:xlink="http://www.w3.org/1999/xlink">
    <!-- Generator: Sketch 42 (36781) - http://www.bohemiancoding.com/sketch -->
    <title>_1Fill 1</title>
    <desc>Created with Sketch.</desc>
    <defs></defs>
    <g id="Symbols" stroke="none" stroke-width="1" fill="none" fill-rule="evenodd">
        <g id="Clip-2" fill="#FFFFFF">
            <path d="M27.201256,21.0546012 C27.1345893,22.516625 26.890244,23.3106131 26.6849464,23.839006 C26.4129226,24.5389464 26.0879821,25.0385298 25.5632202,25.5632321 C25.0385179,26.087994 24.5389345,26.4129345 23.8390536,26.6849583 C23.3106607,26.890256 22.5166726,27.1346012 21.0545893,27.2012679 C19.4736964,27.2734107 18.9994702,27.2886488 14.995244,27.2886488 C10.9910774,27.2886488 10.5169107,27.2734107 8.93589881,27.2012679 C7.473875,27.1346012 6.6798869,26.890256 6.15149405,26.6849583 C5.45155357,26.4129345 4.95202976,26.087994 4.42732738,25.5632321 C3.902625,25.0385298 3.577625,24.5389464 3.30560119,23.839006 C3.10024405,23.3106131 2.85601786,22.516625 2.78923214,21.0546607 C2.71714881,19.4734702 2.70185119,18.9991845 2.70185119,14.995256 C2.70185119,10.9913869 2.71714881,10.5171012 2.78923214,8.93591071 C2.85601786,7.4738869 3.10024405,6.67983929 3.30560119,6.15144643 C3.577625,5.45156548 3.902625,4.95204167 4.42726786,4.42733929 C4.95202976,3.90257738 5.45155357,3.57757738 6.15149405,3.30555357 C6.6798869,3.10025595 7.473875,2.85597024 8.93589881,2.78924405 C10.5170893,2.71710119 10.991375,2.7018631 14.995244,2.7018631 C18.9991726,2.7018631 19.4734583,2.71710119 21.0545893,2.78924405 C22.5166726,2.85597024 23.3106607,3.10025595 23.8390536,3.30555357 C24.5389345,3.57757738 25.0385179,3.90257738 25.5632202,4.42727976 C26.0879821,4.95204167 26.4129226,5.45156548 26.6849464,6.15144643 C26.890244,6.67983929 27.1345893,7.4738869 27.201256,8.93585119 C27.2733988,10.5171012 27.2886964,10.9913869 27.2886964,14.995256 C27.2886964,18.9991845 27.2733988,19.4734702 27.201256,21.0546012 M29.9003036,8.81275595 C29.827506,7.216625 29.573994,6.126625 29.2033393,5.17275595 C28.8200655,4.18674405 28.3073869,3.35043452 27.473756,2.51680357 C26.6400655,1.68317262 25.8038155,1.17043452 24.817744,0.787220238 C23.8639345,0.416505952 22.773875,0.163053571 21.1778036,0.0901964286 C19.5783988,0.0172202381 19.067744,1.78571429e-05 14.995244,1.78571429e-05 C10.9228036,1.78571429e-05 10.4121488,0.0172202381 8.81274405,0.0901964286 C7.2166131,0.163053571 6.1266131,0.416505952 5.17280357,0.787220238 C4.18673214,1.17043452 3.35048214,1.68317262 2.51679167,2.51680357 C1.68316071,3.35043452 1.17048214,4.18674405 0.787267857,5.17275595 C0.416553571,6.126625 0.163041667,7.216625 0.0902440476,8.81275595 C0.0172678571,10.4121607 5.95238089e-06,10.922756 5.95238089e-06,14.995256 C5.95238089e-06,19.067756 0.0172678571,19.5783512 0.0902440476,21.177756 C0.163041667,22.7738869 0.416553571,23.8638869 0.787267857,24.817756 C1.17048214,25.8037679 1.68316071,26.6400774 2.51679167,27.4737083 C3.35048214,28.3073988 4.18673214,28.8200774 5.17280357,29.2032917 C6.1266131,29.574006 7.2166131,29.8275179 8.81274405,29.900256 C10.4121488,29.9732917 10.9228036,29.9905536 14.995244,29.9905536 C19.067744,29.9905536 19.5783988,29.9732917 21.1778036,29.900256 C22.773875,29.8275179 23.8639345,29.574006 24.817744,29.2032917 C25.8038155,28.8200774 26.6400655,28.3073988 27.473756,27.4737083 C28.3073869,26.6400774 28.8200655,25.8038274 29.2033393,24.817756 C29.573994,23.8638869 29.827506,22.7738869 29.9003036,21.177756 C29.9732798,19.5783512 29.9905417,19.067756 29.9905417,14.995256 C29.9905417,10.9228155 29.9732798,10.4121607 29.9003036,8.81275595 M22.9997679,5.19132738 C22.0060179,5.19132738 21.2003631,5.99692262 21.2003631,6.99079167 C21.2003631,7.98454167 22.0060179,8.79019643 22.9997679,8.79019643 C23.9935774,8.79019643 24.7992321,7.98454167 24.7992321,6.99079167 C24.7992321,5.99692262 23.9935774,5.19132738 22.9997679,5.19132738 M14.995244,19.9937083 C12.2347083,19.9937083 9.99685119,17.7557917 9.99685119,14.995256 C9.99685119,12.2347202 12.2347083,9.99680357 14.995244,9.99680357 C17.7557798,9.99680357 19.9936964,12.2347202 19.9936964,14.995256 C19.9936964,17.7557917 17.7557798,19.9937083 14.995244,19.9937083 M14.995244,7.29495833 C10.742506,7.29495833 7.29500595,10.7425179 7.29500595,14.995256 C7.29500595,19.247994 10.742506,22.695494 14.995244,22.695494 C19.2480417,22.695494 22.6955417,19.247994 22.6955417,14.995256 C22.6955417,10.7425179 19.2480417,7.29495833 14.995244,7.29495833" id="Fill-1"></path>
        </g>
    </g>
</svg>