<?xml version="1.0" encoding="UTF-8"?>
<svg width="180px" height="180px" viewBox="0 0 180 180" version="1.1" xmlns="http://www.w3.org/2000/svg" xmlns:xlink="http://www.w3.org/1999/xlink">
    <!-- Generator: sketchtool 42 (36781) - http://www.bohemiancoding.com/sketch -->
    <title>14B6EBC4-D971-4EB8-8EDC-DA8EDE53FC0C</title>
    <desc>Created with sketchtool.</desc>
    <defs></defs>
    <g id="Mainpage" stroke="none" stroke-width="1" fill="none" fill-rule="evenodd">
        <g id="FLWRS-Mainframe" transform="translate(-199.000000, -170.000000)" fill="#FFFFFF">
            <g id="Fill-1" transform="translate(199.000000, 170.000000)">
                <g>
                    <path d="M163.207536,126.327607 C162.807536,135.09975 161.341464,139.863679 160.109679,143.034036 C158.477536,147.233679 156.527893,150.231179 153.379321,153.379393 C150.231107,156.527964 147.233607,158.477607 143.034321,160.10975 C139.863964,161.341536 135.100036,162.807607 126.327536,163.207607 C116.842179,163.640464 113.996821,163.731893 89.9714643,163.731893 C65.9464643,163.731893 63.1014643,163.640464 53.6153929,163.207607 C44.84325,162.807607 40.0793214,161.341536 36.9089643,160.10975 C32.7093214,158.477607 29.7121786,156.527964 26.5639643,153.379393 C23.41575,150.231179 21.46575,147.233679 19.8336071,143.034036 C18.6014643,139.863679 17.1361071,135.09975 16.7353929,126.327964 C16.3028929,116.840821 16.2111071,113.995107 16.2111071,89.9715357 C16.2111071,65.9483214 16.3028929,63.1026071 16.7353929,53.6154643 C17.1361071,44.8433214 18.6014643,40.0790357 19.8336071,36.9086786 C21.46575,32.7093929 23.41575,29.71225 26.5636071,26.5640357 C29.7121786,23.4154643 32.7093214,21.4654643 36.9089643,19.8333214 C40.0793214,18.6015357 44.84325,17.1358214 53.6153929,16.7354643 C63.1025357,16.3026071 65.94825,16.2111786 89.9714643,16.2111786 C113.995036,16.2111786 116.84075,16.3026071 126.327536,16.7354643 C135.100036,17.1358214 139.863964,18.6015357 143.034321,19.8333214 C147.233607,21.4654643 150.231107,23.4154643 153.379321,26.5636786 C156.527893,29.71225 158.477536,32.7093929 160.109679,36.9086786 C161.341464,40.0790357 162.807536,44.8433214 163.207536,53.6151071 C163.640393,63.1026071 163.732179,65.9483214 163.732179,89.9715357 C163.732179,113.995107 163.640393,116.840821 163.207536,126.327607 M179.401821,52.8765357 C178.965036,43.29975 177.443964,36.75975 175.220036,31.0365357 C172.920393,25.1204643 169.844321,20.1026071 164.842536,15.1008214 C159.840393,10.0990357 154.822893,7.02260714 148.906464,4.72332143 C143.183607,2.49903571 136.64325,0.978321429 127.066821,0.541178571 C117.470393,0.103321429 114.406464,0.000107142857 89.9714643,0.000107142857 C65.5368214,0.000107142857 62.4728929,0.103321429 52.8764643,0.541178571 C43.2996786,0.978321429 36.7596786,2.49903571 31.0368214,4.72332143 C25.1203929,7.02260714 20.1028929,10.0990357 15.10075,15.1008214 C10.0989643,20.1026071 7.02289286,25.1204643 4.72360714,31.0365357 C2.49932143,36.75975 0.97825,43.29975 0.541464286,52.8765357 C0.103607143,62.4729643 3.57142858e-05,65.5365357 3.57142858e-05,89.9715357 C3.57142858e-05,114.406536 0.103607143,117.470107 0.541464286,127.066536 C0.97825,136.643321 2.49932143,143.183321 4.72360714,148.906536 C7.02289286,154.822607 10.0989643,159.840464 15.10075,164.84225 C20.1028929,169.844393 25.1203929,172.920464 31.0368214,175.21975 C36.7596786,177.444036 43.2996786,178.965107 52.8764643,179.401536 C62.4728929,179.83975 65.5368214,179.943321 89.9714643,179.943321 C114.406464,179.943321 117.470393,179.83975 127.066821,179.401536 C136.64325,178.965107 143.183607,177.444036 148.906464,175.21975 C154.822893,172.920464 159.840393,169.844393 164.842536,164.84225 C169.844321,159.840464 172.920393,154.822964 175.220036,148.906536 C177.443964,143.183321 178.965036,136.643321 179.401821,127.066536 C179.839679,117.470107 179.94325,114.406536 179.94325,89.9715357 C179.94325,65.5368929 179.839679,62.4729643 179.401821,52.8765357 M137.998607,31.1479643 C132.036107,31.1479643 127.202179,35.9815357 127.202179,41.94475 C127.202179,47.90725 132.036107,52.7411786 137.998607,52.7411786 C143.961464,52.7411786 148.795393,47.90725 148.795393,41.94475 C148.795393,35.9815357 143.961464,31.1479643 137.998607,31.1479643 M89.9714643,119.96225 C73.40825,119.96225 59.9811071,106.53475 59.9811071,89.9715357 C59.9811071,73.4083214 73.40825,59.9808214 89.9714643,59.9808214 C106.534679,59.9808214 119.962179,73.4083214 119.962179,89.9715357 C119.962179,106.53475 106.534679,119.96225 89.9714643,119.96225 M89.9714643,43.76975 C64.4550357,43.76975 43.7700357,64.4551071 43.7700357,89.9715357 C43.7700357,115.487964 64.4550357,136.172964 89.9714643,136.172964 C115.48825,136.172964 136.17325,115.487964 136.17325,89.9715357 C136.17325,64.4551071 115.48825,43.76975 89.9714643,43.76975"></path>
                </g>
            </g>
        </g>
    </g>
</svg>