<?xml version="1.0" encoding="UTF-8"?>
<svg width="39px" height="30px" viewBox="0 0 39 30" version="1.1" xmlns="http://www.w3.org/2000/svg" xmlns:xlink="http://www.w3.org/1999/xlink">
    <!-- Generator: Sketch 42 (36781) - http://www.bohemiancoding.com/sketch -->
    <title>Master Card</title>
    <desc>Created with Sketch.</desc>
    <defs></defs>
    <g id="Symbols" stroke="none" stroke-width="1" fill="none" fill-rule="evenodd">
        <g id="Master-Card" fill="#9B9B9B">
            <path d="M18.8332211,2.92560998 C16.3217719,5.11096152 14.7320039,8.32790757 14.7320039,11.9182935 C14.7320039,15.5083483 16.3217719,18.7252944 18.8332211,20.9103148 C18.9802134,21.0384365 19.1305163,21.1629165 19.2841299,21.2837547 C19.4377435,21.1629165 19.5880464,21.0384365 19.7350387,20.9103148 C22.246819,18.7252944 23.8362559,15.5083483 23.8362559,11.9182935 C23.8362559,8.32790757 22.246819,5.11096152 19.7350387,2.92560998 C19.5880464,2.79781939 19.4377435,2.67333944 19.2841299,2.55250119 C19.1305163,2.67333944 18.9802134,2.79781939 18.8332211,2.92560998 Z M20.0521977,1.99167927 C20.1488683,2.07080349 20.2468632,2.14893453 20.3402231,2.2303762 C23.1479744,4.67296423 24.7582683,8.20408974 24.7582683,11.9182935 C24.7582683,15.6318351 23.1479744,19.1629606 20.3405542,21.6058797 C20.2471942,21.6869903 20.1488683,21.7651213 20.0521977,21.8445766 C21.9412472,23.1026187 24.2096958,23.8362559 26.6499663,23.8362559 C33.232175,23.8362559 38.5682598,18.5005021 38.5682598,11.9182935 C38.5682598,5.33575378 33.232175,-3.55271368e-15 26.6499663,-3.55271368e-15 C24.2096958,-3.55271368e-15 21.9412472,0.733637176 20.0521977,1.99167927 Z M18.5160621,21.8442456 C16.6270126,23.1026187 14.3585641,23.836587 11.9182935,23.836587 C5.33575378,23.836587 -1.13686838e-13,18.500171 -1.13686838e-13,11.9182935 C-1.13686838e-13,5.33608484 5.33575378,-3.55271368e-15 11.9182935,-3.55271368e-15 C14.3585641,-3.55271368e-15 16.6270126,0.733637176 18.5160621,1.99167927 C18.4193915,2.07080349 18.3217277,2.14893453 18.2280367,2.23004514 C15.4202854,4.67296423 13.8099915,8.20408974 13.8099915,11.9182935 C13.8099915,15.6321661 15.4202854,19.1632917 18.2280367,21.6058797 C18.3210656,21.6869903 18.4193915,21.7651213 18.5160621,21.8442456 Z M38.19482,19.3033316 L38.19482,18.8408356 L38.0739817,18.8408356 L37.935266,19.1589878 L37.7962193,18.8408356 L37.675381,18.8408356 L37.675381,19.3033316 L37.7607954,19.3033316 L37.7607954,18.9543905 L37.8909035,19.2553274 L37.9792975,19.2553274 L38.1097366,18.9537283 L38.1097366,19.3033316 L38.19482,19.3033316 Z M37.4300628,19.3033316 L37.4300628,18.9196288 L37.5846695,18.9196288 L37.5846695,18.8414977 L37.1907037,18.8414977 L37.1907037,18.9196288 L37.3453105,18.9196288 L37.3453105,19.3033316 L37.4300628,19.3033316 Z M37.8025095,29.5931227 L37.8025095,29.6709227 L37.8740192,29.6709227 C37.8905724,29.6709227 37.903815,29.667612 37.9134158,29.6613218 C37.9233477,29.6547006 37.9279826,29.6447686 37.9279826,29.6315261 C37.9279826,29.6186146 37.9233477,29.6090138 37.9134158,29.6023925 C37.903815,29.5964333 37.8905724,29.5931227 37.8740192,29.5931227 L37.8025095,29.5931227 Z M37.8750124,29.5381661 C37.9124226,29.5381661 37.9412252,29.5464427 37.9617511,29.563327 C37.981946,29.5802112 37.992209,29.6027236 37.992209,29.6315261 C37.992209,29.6556937 37.9839324,29.6755576 37.9677103,29.6914486 C37.9514881,29.7066776 37.9286447,29.7166095 37.898849,29.7202512 L37.9945264,29.8304954 L37.919706,29.8304954 L37.8309809,29.7205822 L37.8025095,29.7205822 L37.8025095,29.8304954 L37.7399384,29.8304954 L37.7399384,29.5381661 L37.8750124,29.5381661 Z M37.9511571,29.911606 C37.9806217,29.8986945 38.0061136,29.8811481 38.0282949,29.8586358 C38.0504762,29.8367856 38.0676915,29.8109626 38.0802719,29.7811669 C38.0928523,29.7510401 38.0994736,29.719589 38.0994736,29.6854895 C38.0994736,29.6513899 38.0928523,29.6199389 38.0802719,29.5898121 C38.0676915,29.5600163 38.0504762,29.5341934 38.0282949,29.5120121 C38.0061136,29.4898308 37.9806217,29.4722844 37.9511571,29.459704 C37.9220235,29.4471236 37.8902413,29.4411645 37.8564728,29.4411645 C37.8220422,29.4411645 37.789598,29.4471236 37.7598022,29.459704 C37.7296754,29.4722844 37.7035214,29.4898308 37.6813401,29.5120121 C37.6591589,29.5341934 37.6419436,29.5600163 37.6293631,29.5898121 C37.6167827,29.6199389 37.6104925,29.6513899 37.6104925,29.6854895 C37.6104925,29.719589 37.6167827,29.7510401 37.6293631,29.7811669 C37.6419436,29.8109626 37.6591589,29.8367856 37.6813401,29.8586358 C37.7035214,29.8811481 37.7296754,29.8986945 37.7598022,29.911606 C37.789598,29.9241864 37.8220422,29.9304766 37.8564728,29.9304766 C37.8902413,29.9304766 37.9220235,29.9241864 37.9511571,29.911606 Z M37.9809528,29.3954777 C38.0196873,29.4120309 38.0534558,29.4345432 38.0825894,29.4630147 C38.111723,29.4914861 38.1345664,29.5249236 38.1511195,29.563327 C38.1680038,29.6013993 38.1762804,29.6421201 38.1762804,29.6854895 C38.1762804,29.7285278 38.1680038,29.7692486 38.1511195,29.8073209 C38.1345664,29.8450622 38.111723,29.8784996 38.0825894,29.9069711 C38.0534558,29.9357736 38.0196873,29.9579549 37.9809528,29.9748392 C37.9418873,29.9917234 37.9005043,30 37.8564728,30 C37.8111171,30 37.768741,29.9917234 37.7296754,29.9748392 C37.6902789,29.9579549 37.6561793,29.9357736 37.6273768,29.9069711 C37.5985742,29.8784996 37.5757308,29.8450622 37.5591776,29.8073209 C37.5426245,29.7692486 37.5340168,29.7285278 37.5340168,29.6854895 C37.5340168,29.6421201 37.5426245,29.6013993 37.5591776,29.563327 C37.5757308,29.5249236 37.5985742,29.4914861 37.6273768,29.4630147 C37.6561793,29.4345432 37.6902789,29.4120309 37.7296754,29.3954777 C37.768741,29.3792555 37.8111171,29.370979 37.8564728,29.370979 C37.9005043,29.370979 37.9418873,29.3792555 37.9809528,29.3954777 Z M9.2936204,27.2342938 C9.86304998,27.2342938 10.2470839,27.6712979 10.2470839,28.2470177 C10.2470839,28.8233996 9.86304998,29.2600726 9.2936204,29.2600726 C8.69770573,29.2600726 8.33386671,28.8032047 8.33386671,28.2470177 C8.33386671,27.6911617 8.69770573,27.2342938 9.2936204,27.2342938 Z M10.8959687,28.2470177 L10.8959687,26.6648642 L10.2073562,26.6648642 L10.2073562,27.0488981 C9.98885419,26.7645144 9.65779048,26.58574 9.20754384,26.58574 C8.32062417,26.58574 7.62539038,27.2806427 7.62539038,28.2470177 C7.62539038,29.2137237 8.32062417,29.9089575 9.20754384,29.9089575 C9.65779048,29.9089575 9.98885419,29.7301831 10.2073562,29.4454683 L10.2073562,29.8298333 L10.8959687,29.8298333 L10.8959687,28.2470177 Z M35.1063266,27.2342938 C35.6757562,27.2342938 36.0597901,27.6712979 36.0597901,28.2470177 C36.0597901,28.8233996 35.6757562,29.2600726 35.1063266,29.2600726 C34.510743,29.2600726 34.1465729,28.8032047 34.1465729,28.2470177 C34.1465729,27.6911617 34.510743,27.2342938 35.1063266,27.2342938 Z M36.708675,28.2470177 L36.708675,25.3939106 L36.0200625,25.3939106 L36.0200625,27.0488981 C35.8015604,26.7645144 35.4708278,26.58574 35.0205811,26.58574 C34.1333304,26.58574 33.4380966,27.2806427 33.4380966,28.2470177 C33.4380966,29.2137237 34.1333304,29.9089575 35.0205811,29.9089575 C35.4708278,29.9089575 35.8015604,29.7301831 36.0200625,29.4454683 L36.0200625,29.8298333 L36.708675,29.8298333 L36.708675,28.2470177 Z M20.2372623,27.9689242 L18.5951863,27.9689242 C18.6680203,27.5123873 18.9461139,27.2011874 19.4360882,27.2011874 C19.8797135,27.2011874 20.1644283,27.4792809 20.2372623,27.9689242 Z M17.8737985,28.2470177 C17.8737985,29.2534513 18.5488374,29.9089575 19.4956796,29.9089575 C19.9724114,29.9089575 20.4090844,29.7897745 20.7934494,29.4653321 L20.4557644,28.9558251 C20.1909134,29.1677058 19.8532284,29.2865577 19.5354073,29.2865577 C19.0917819,29.2865577 18.6878842,29.0816293 18.5885651,28.5118686 L20.9391174,28.5118686 C20.9457387,28.4257921 20.9523599,28.3400466 20.9523599,28.2470177 C20.9457387,27.2607789 20.3365814,26.58574 19.4493307,26.58574 C18.5223523,26.58574 17.8737985,27.2607789 17.8737985,28.2470177 Z M28.7177903,27.2342938 C29.2872198,27.2342938 29.6712537,27.6712979 29.6712537,28.2470177 C29.6712537,28.8233996 29.2872198,29.2600726 28.7177903,29.2600726 C28.1218756,29.2600726 27.7580366,28.8032047 27.7580366,28.2470177 C27.7580366,27.6911617 28.1218756,27.2342938 28.7177903,27.2342938 Z M30.3198075,28.2470177 L30.3198075,26.6648642 L29.6315261,26.6648642 L29.6315261,27.0488981 C29.413024,26.7645144 29.0819603,26.58574 28.6317137,26.58574 C27.744794,26.58574 27.0495602,27.2806427 27.0495602,28.2470177 C27.0495602,29.2137237 27.744794,29.9089575 28.6317137,29.9089575 C29.0819603,29.9089575 29.413024,29.7301831 29.6315261,29.4454683 L29.6315261,29.8298333 L30.3198075,29.8298333 L30.3198075,28.2470177 Z M25.5601046,29.9089575 C26.0365053,29.9089575 26.3543265,29.8033482 26.6986327,29.5315449 L26.367569,28.9756889 C26.1093393,29.1607535 25.8378671,29.2600726 25.5399097,29.2600726 C24.990675,29.2534513 24.5867773,28.8561749 24.5867773,28.2470177 C24.5867773,27.6381915 24.990675,27.2409151 25.5399097,27.2342938 C25.8378671,27.2342938 26.1093393,27.333944 26.367569,27.5190086 L26.6986327,26.9628215 C26.3543265,26.6913493 26.0365053,26.58574 25.5601046,26.58574 C24.5404284,26.58574 23.8716797,27.287264 23.8716797,28.2470177 C23.8716797,29.2074335 24.5404284,29.9089575 25.5601046,29.9089575 Z M31.9089133,27.0488981 L31.9089133,26.6648642 L31.2269221,26.6648642 L31.2269221,29.8298333 L31.9155346,29.8298333 L31.9155346,28.0553318 C31.9155346,27.5322511 32.1406579,27.2409151 32.5905735,27.2409151 C32.7299513,27.2409151 32.8756194,27.2607789 33.0212874,27.3203703 L33.2328371,26.6718165 C33.0805478,26.6122251 32.8819096,26.58574 32.7428628,26.58574 C32.3459174,26.58574 32.0876877,26.7708046 31.9089133,27.0488981 Z M14.2986415,26.9164726 C13.9675778,26.6983016 13.511041,26.58574 13.0078241,26.58574 C12.20665,26.58574 11.6905216,26.9694428 11.6905216,27.5984639 C11.6905216,28.1149232 12.0742245,28.4327444 12.7827008,28.5320635 L13.1071433,28.5780814 C13.4842248,28.6310516 13.6629992,28.7303707 13.6629992,28.9091451 C13.6629992,29.1544633 13.4113908,29.293179 12.9416114,29.293179 C12.4648797,29.293179 12.1205734,29.1412207 11.8888288,28.9621153 L11.5643864,29.4987695 C11.941799,29.776532 12.4185307,29.9089575 12.9349901,29.9089575 C13.8483949,29.9089575 14.3780968,29.4785747 14.3780968,28.8763698 C14.3780968,28.3201827 13.9609566,28.0288467 13.2726751,27.9291965 L12.9482327,27.8831787 C12.6502753,27.843451 12.4119095,27.7838595 12.4119095,27.5719788 C12.4119095,27.3402342 12.6370328,27.2011874 13.0144454,27.2011874 C13.4180121,27.2011874 13.8086672,27.3534767 14.0010153,27.4726597 L14.2986415,26.9164726 Z M22.3424964,27.0488981 L22.3424964,26.6648642 L21.6605052,26.6648642 L21.6605052,29.8298333 L22.3491177,29.8298333 L22.3491177,28.0553318 C22.3491177,27.5322511 22.574241,27.2409151 23.0244877,27.2409151 C23.1632034,27.2409151 23.3092025,27.2607789 23.4545394,27.3203703 L23.6664202,26.6718165 C23.5141309,26.6122251 23.3154927,26.58574 23.1764459,26.58574 C22.7795005,26.58574 22.5212708,26.7708046 22.3424964,27.0488981 Z M17.3043689,26.6648642 L16.1790834,26.6648642 L16.1790834,25.7051105 L15.4838496,25.7051105 L15.4838496,26.6648642 L14.841586,26.6648642 L14.841586,27.2938853 L15.4838496,27.2938853 L15.4838496,28.737323 C15.4838496,29.4722844 15.7682333,29.9089575 16.5826501,29.9089575 C16.8806074,29.9089575 17.2249136,29.8165907 17.4434157,29.6643014 L17.2447775,29.0746769 C17.039518,29.1941909 16.8143947,29.2534513 16.6356202,29.2534513 C16.291314,29.2534513 16.1790834,29.0419016 16.1790834,28.7240805 L16.1790834,27.2938853 L17.3043689,27.2938853 L17.3043689,26.6648642 Z M7.01623316,29.8298333 L7.01623316,27.843451 C7.01623316,27.095247 6.53950142,26.5920302 5.77176468,26.58574 C5.36786696,26.5787876 4.95072668,26.7045919 4.65939062,27.1482172 C4.44088857,26.7972897 4.09658232,26.58574 3.61356037,26.58574 C3.27587539,26.58574 2.94481168,26.6850591 2.68658199,27.0558504 L2.68658199,26.6648642 L1.99796948,26.6648642 L1.99796948,29.8298333 L2.69320326,29.8298333 L2.69320326,28.0751956 C2.69320326,27.5256298 2.99778187,27.2342938 3.46789234,27.2342938 C3.92442919,27.2342938 4.15617379,27.5322511 4.15617379,28.0682433 L4.15617379,29.8298333 L4.85140757,29.8298333 L4.85140757,28.0751956 C4.85140757,27.5256298 5.16922873,27.2342938 5.62609665,27.2342938 C6.09620711,27.2342938 6.32099937,27.5322511 6.32099937,28.0682433 L6.32099937,29.8298333 L7.01623316,29.8298333 Z"></path>
        </g>
    </g>
</svg>