<?xml version="1.0" encoding="UTF-8"?>
<svg width="60px" height="17px" viewBox="0 0 60 17" version="1.1" xmlns="http://www.w3.org/2000/svg" xmlns:xlink="http://www.w3.org/1999/xlink">
    <!-- Generator: Sketch 42 (36781) - http://www.bohemiancoding.com/sketch -->
    <title>MIR</title>
    <desc>Created with Sketch.</desc>
    <defs></defs>
    <g id="Welcome" stroke="none" stroke-width="1" fill="none" fill-rule="evenodd">
        <g id="Artboard" transform="translate(-208.000000, -50.000000)" fill="#9B9B9B">
            <g id="MIR" transform="translate(208.000000, 50.000000)">
                <g id="Fill-1">
                    <path d="M54.0736364,0.000419753086 L42.1846154,0.000419753086 C42.9067133,3.92930864 46.3430769,6.90640741 50.4782517,6.90640741 L59.7106993,6.90640741 C59.7855944,6.53408642 59.8258741,6.14959259 59.8258741,5.75523457 C59.8258741,2.57707407 57.2502797,0.000419753086 54.0736364,0.000419753086 L54.0736364,0.000419753086 Z M42.9518182,16.8822593 L48.3100699,16.8822593 L48.3100699,11.5108889 L54.0734266,11.5108889 C56.5768531,11.5108889 58.7007692,9.90764198 59.4914685,7.67392593 L42.9518182,7.67392593 L42.9518182,16.8822593 Z M13.1658042,2.21902469 L10.9292308,9.97606173 L10.5461538,9.97606173 L8.30937063,2.21902469 C7.92986014,0.905197531 6.72776224,0 5.36181818,0 L0,0 L0,16.8820494 L5.36769231,16.8820494 L5.36769231,6.90577778 L5.75223776,6.90577778 L8.82,16.8820494 L12.6551748,16.8820494 L15.7229371,6.90577778 L16.106014,6.90577778 L16.106014,16.8820494 L21.4751748,16.8820494 L21.4751748,0 L16.1135664,0 C14.7472028,0 13.5451049,0.905197531 13.1658042,2.21902469 L13.1658042,2.21902469 Z M33.3088112,1.78353086 L29.5296503,9.97522222 L29.1453147,9.97522222 L29.1453147,0.000419753086 L23.7761538,0.000419753086 L23.7761538,16.8812099 L28.3336364,16.8812099 C29.5296503,16.8812099 30.6165734,16.1854691 31.1186014,15.0983086 L34.8988112,6.90640741 L35.2820979,6.90640741 L35.2820979,16.8812099 L40.6512587,16.8812099 L40.6512587,0.000419753086 L36.0948252,0.000419753086 C34.8975524,0.000419753086 33.8104196,0.696160494 33.3088112,1.78353086 L33.3088112,1.78353086 Z"></path>
                </g>
            </g>
        </g>
    </g>
</svg>