<?xml version="1.0" encoding="UTF-8"?>
<svg width="79px" height="79px" viewBox="0 0 79 79" version="1.1" xmlns="http://www.w3.org/2000/svg" xmlns:xlink="http://www.w3.org/1999/xlink">
    <!-- Generator: Sketch 42 (36781) - http://www.bohemiancoding.com/sketch -->
    <title>04</title>
    <desc>Created with Sketch.</desc>
    <defs>
        <polygon id="path-1" points="78.25 78.2491 78.25 -0.00015 0.0001 -0.00015 0.0001 78.2491"></polygon>
        <linearGradient x1="5.38793103%" y1="90.8605239%" x2="100%" y2="14.84375%" id="linearGradient-3">
            <stop stop-color="#FFD520" offset="0%"></stop>
            <stop stop-color="#F50400" offset="36.7572611%"></stop>
            <stop stop-color="#B900B4" offset="100%"></stop>
        </linearGradient>
    </defs>
    <g id="Symbols" stroke="none" stroke-width="1" fill="none" fill-rule="evenodd">
        <g id="04">
            <g id="Page-1">
                <g>
                    <mask id="mask-2" fill="white">
                        <use xlink:href="#path-1"></use>
                    </mask>
                    <g id="Clip-2"></g>
                    <path d="M59.0781,71.2071 C57.9041,71.9901 56.7311,72.7721 55.1661,73.1641 C52.8181,73.9461 50.0801,74.3371 47.3411,74.3371 L31.3001,74.3371 C28.5611,74.3371 25.8221,73.9461 23.4741,73.1641 C21.9101,72.7721 20.3451,71.9901 19.5621,71.2071 C18.3891,70.4251 17.6061,68.8601 17.6061,67.2951 C17.6061,66.1211 17.9971,64.5561 18.3891,63.7731 C21.5181,60.6441 25.8221,57.9051 32.4741,55.9491 C32.8651,55.9491 33.2561,55.5571 33.2561,55.5571 C34.4301,54.3841 35.9951,53.2101 35.9951,51.6451 C36.3861,49.6881 35.2121,48.5151 34.0391,47.3411 C30.1261,41.8641 28.1701,36.7771 28.5611,32.4741 C28.9521,29.7351 30.1261,27.3871 32.4741,25.8221 C34.4301,24.6481 36.7771,23.8661 39.1251,23.8661 C41.4731,23.8661 43.8201,24.6481 45.7761,25.8221 C48.1231,27.7791 49.2971,29.7351 49.6881,32.4741 C50.0801,36.7771 48.1231,42.2551 44.2111,47.3411 C43.0371,48.5151 41.8631,50.0801 41.8631,51.6451 C41.8631,53.2101 43.4291,54.3841 44.6021,55.5571 C44.9931,55.5571 44.9931,55.9491 45.3851,55.9491 C52.0361,58.2961 56.7311,60.6441 59.4701,63.7731 C60.6431,64.5561 61.0351,66.1211 61.0351,67.2951 C61.0351,68.8601 60.2521,70.4251 59.0781,71.2071 L59.0781,71.2071 Z M46.9501,52.4271 C46.5581,52.0361 45.7761,51.6451 45.7761,51.6451 C45.7761,51.6451 45.7761,51.2531 46.9501,50.0801 C51.6441,43.8201 53.9921,37.5601 53.2101,32.0821 C52.8181,28.5611 50.8621,25.4311 47.7321,23.0831 C43.0371,19.5621 35.2121,19.5621 30.1261,23.0831 C26.9961,25.4311 25.4321,28.5611 24.6481,32.0821 C23.8661,37.5601 26.2141,43.4291 31.3001,50.0801 C32.0821,50.8621 32.4741,51.2531 32.4741,51.2531 C32.0821,51.6451 31.6911,52.0361 31.3001,52.4271 C24.2581,54.7751 19.1711,57.5141 16.0411,61.0351 C14.4761,62.9911 13.6931,64.9471 13.6931,67.2951 C13.6931,70.0341 14.8671,72.7721 17.2151,73.9461 C18.3891,75.1201 19.9541,75.9021 21.9101,76.6851 C24.6481,77.8581 27.7781,78.2491 31.3001,78.2491 L47.3411,78.2491 C50.4711,78.2491 53.6001,77.8581 56.7311,77.0761 C58.6871,76.2931 60.2521,75.5111 61.4261,74.3371 C63.3821,72.7721 64.5561,70.0341 64.5561,67.2951 C64.5561,64.9471 63.7731,62.6001 62.2091,61.0351 C59.0781,57.5141 53.9921,54.7751 46.9501,52.4271 L46.9501,52.4271 Z M21.9101,44.2111 C23.0841,44.2111 23.8661,43.4291 23.8661,42.2551 C23.8661,41.0811 23.0841,40.2991 21.9101,40.2991 L13.6931,40.2991 C11.7371,40.2991 9.7811,39.9071 8.2161,39.1251 C7.0431,38.7331 6.2601,38.3421 5.4771,37.9511 C4.6951,37.5601 4.3041,36.7771 4.3041,35.6031 C4.3041,34.8211 4.6951,34.0391 5.0861,33.2561 C7.4331,30.9091 10.5631,29.3441 14.8671,27.3871 C15.2591,27.3871 15.6501,26.9961 15.6501,26.9961 C16.8231,26.2141 17.9971,25.4311 17.9971,23.8661 C18.3891,22.6921 17.2151,21.5191 16.4321,20.3451 C13.6931,16.4331 12.1291,12.9111 12.5191,9.7811 C12.5191,8.2161 13.6931,6.6511 15.2591,5.4781 C17.9971,3.5211 21.5181,3.5211 24.2581,5.4781 C25.8221,6.6511 26.9961,8.2161 26.9961,10.1721 C27.3881,12.9111 26.2141,16.8241 23.0841,20.7361 C22.3011,21.5191 22.6921,22.6921 23.4741,23.4751 C24.2581,23.8661 25.4321,23.8661 26.2141,23.0831 C29.7341,18.3891 31.3001,13.6941 30.9081,9.3901 C30.5171,6.6511 28.9521,4.3041 26.6041,2.3481 C22.6921,-0.7829 16.8231,-0.7829 12.9111,2.3481 C10.5631,3.9131 8.9991,6.6511 8.6071,9.3901 C7.8251,13.3021 9.7811,18.3891 13.6931,23.0831 C13.6931,23.4751 14.0851,23.8661 14.0851,23.8661 C14.0851,24.2571 13.6931,24.2571 13.6931,24.2571 C8.6071,25.8221 4.6951,27.7791 1.9561,30.5181 C0.7821,32.0821 0.0001,33.6471 0.0001,35.6031 C0.0001,37.5601 1.1741,39.9071 2.7381,41.0811 C3.9121,41.8641 5.0861,42.6461 6.6511,43.0371 C8.6071,43.8201 10.9551,44.2111 13.6931,44.2111 L21.9101,44.2111 Z M76.2931,31.3001 C73.9461,28.5611 70.0331,26.2141 64.9471,24.6481 C64.9471,24.2571 64.5561,24.2571 64.5561,24.2571 C64.9471,24.2571 64.9471,23.8661 65.3391,23.4751 C68.8591,18.7801 70.4251,14.0851 70.0331,9.7811 C69.6421,7.0421 68.0771,4.6951 65.7291,2.7391 C61.8171,-0.3909 55.9481,-0.3909 52.0361,2.7391 C49.6881,4.3041 48.1231,7.0421 47.7321,9.7811 C46.9501,14.0851 48.5151,18.7801 52.4281,23.4751 C53.2101,24.2571 54.3841,24.6481 55.1661,23.8661 C55.9481,23.0831 56.3401,21.9101 55.5571,21.1271 C52.8181,17.2151 51.2541,13.6941 51.6441,10.5641 C52.0361,8.6071 52.8181,7.0421 54.3841,5.8691 C56.7311,3.9131 60.6431,3.9131 63.3821,5.8691 C64.9471,7.0421 65.7291,8.6071 66.1211,10.5641 C66.5121,13.6941 64.9471,17.2151 62.2091,21.1271 C61.0351,21.9101 60.2521,23.0831 60.2521,24.6481 C60.6431,25.8221 61.4261,26.9961 62.5991,27.7791 C62.9911,27.7791 62.9911,28.1701 63.3821,28.1701 C68.0771,29.7351 71.5991,31.3001 73.5551,33.6471 C73.9461,34.4301 74.3371,35.2121 74.3371,35.9951 C74.3371,36.7771 73.9461,37.9511 73.1631,38.3421 C72.3811,38.7331 71.5991,39.1251 70.4251,39.5161 C68.4691,39.9071 66.5121,40.2991 64.5561,40.2991 L56.3401,40.2991 C55.1661,40.2991 54.3841,41.0811 54.3841,42.2551 C54.3841,43.4291 55.1661,44.2111 56.3401,44.2111 L64.5561,44.2111 C66.9031,44.2111 69.2511,43.8201 71.5991,43.8201 C73.1631,43.4291 74.3371,42.6461 75.5111,41.8641 C77.0761,40.6901 78.2501,38.7331 78.2501,36.3861 C78.2501,34.4301 77.4671,32.4741 76.2931,31.3001 L76.2931,31.3001 Z" id="Fill-1" fill="url(#linearGradient-3)" mask="url(#mask-2)"></path>
                </g>
            </g>
        </g>
    </g>
</svg>