<?xml version="1.0" encoding="UTF-8"?>
<svg width="55px" height="24px" viewBox="0 0 55 24" version="1.1" xmlns="http://www.w3.org/2000/svg" xmlns:xlink="http://www.w3.org/1999/xlink">
    <!-- Generator: Sketch 42 (36781) - http://www.bohemiancoding.com/sketch -->
    <title>Qiwi</title>
    <desc>Created with Sketch.</desc>
    <defs>
        <polygon id="path-1" points="0 2.35294119e-05 0 23.9267987 54.9065936 23.9267987 54.9065936 2.35294119e-05 3.17186806e-21 2.35294119e-05"></polygon>
    </defs>
    <g id="Symbols" stroke="none" stroke-width="1" fill="none" fill-rule="evenodd">
        <g id="Qiwi">
            <g>
                <mask id="mask-2" fill="white">
                    <use xlink:href="#path-1"></use>
                </mask>
                <g id="Clip-2"></g>
                <path d="M18.3039766,15.0664941 C18.0957957,15.0053176 17.9402745,15.0508471 17.8633915,15.1920235 C17.7470723,15.4055529 17.833083,15.8280235 18.0675936,16.1961412 C18.3053809,16.5690824 18.5070085,16.7581412 18.6675617,16.7581412 C18.7229128,16.7581412 18.7724128,16.7347294 18.8109128,16.6907294 C18.900317,16.5876706 18.9298064,16.3717882 18.8921255,16.0987294 C18.8544447,15.8196706 18.6840617,15.2456706 18.3039766,15.0664941 L18.3039766,15.0664941 Z M15.9572319,16.8076706 C15.7444872,16.8076706 15.567083,16.8822588 15.4580191,17.0176706 C15.1783383,17.3641412 15.3040191,17.9741412 15.7322,18.3502588 C15.919083,18.5142588 16.1882319,18.6124941 16.452466,18.6124941 C16.7216149,18.6124941 16.9460617,18.5109647 17.0844979,18.3269647 C17.3336362,17.9913176 17.1902851,17.5155529 16.7195085,17.1153176 C16.4865191,16.9170824 16.2157319,16.8076706 15.9572319,16.8076706 L15.9572319,16.8076706 Z M17.3454553,19.7122588 C17.1094234,19.6488471 16.876434,19.5909647 16.6455511,19.5337882 C16.6155936,19.5264941 16.5856362,19.5190824 16.5556787,19.5114353 C15.1458064,19.1636706 13.8198383,18.8254353 12.4725723,17.4507294 C12.4538489,17.4319059 12.4354766,17.4132 12.4168702,17.3940235 C12.0487213,17.0107294 11.6790511,16.5484941 11.3051681,15.9868471 C11.2049979,15.8361412 11.1045936,15.6795529 11.0034872,15.5137882 C10.7176043,15.0449647 10.7406574,16.2070824 10.8496043,17.6059059 C10.8514766,17.6286118 10.8529979,17.6516706 10.8551043,17.6747294 C10.7653489,17.6775529 10.6755936,17.6803765 10.5846681,17.6803765 C8.68950851,17.6803765 7.1049234,17.0132 5.74022128,15.6412 C4.37540213,14.2693176 3.71200851,12.6380235 3.71200851,10.6540235 C3.71200851,8.66590588 4.35702979,7.02767059 5.68451915,5.64578824 C7.00487021,4.27072941 8.60794468,3.60237647 10.5846681,3.60237647 C12.5151681,3.60237647 14.1211681,4.27002353 15.4947638,5.64296471 C16.8674234,7.01496471 17.5344447,8.66708235 17.5344447,10.6933176 C17.5344447,10.9536706 17.5232106,11.2074353 17.5016787,11.4549647 C17.4785085,11.4534353 17.4556894,11.4520235 17.4329872,11.4506118 C16.2585617,11.3757882 15.236966,11.3919059 15.1664021,11.4621412 C14.995434,11.6327294 15.4669128,11.6081412 15.6784872,11.6653176 C16.023466,11.7589647 16.3442213,11.8724941 16.6415723,12.0041412 C16.8745617,12.1076706 17.0929234,12.2226118 17.2973596,12.3490824 C17.3181894,12.3617882 17.3392532,12.3743765 17.3598489,12.3874353 C18.6075298,13.1839059 19.3153915,14.4170824 19.5442851,16.0409647 C19.5532957,16.1059059 19.5923809,16.1943765 19.6627106,16.0782588 C20.3167426,14.9741412 20.6681574,14.1142588 20.8569128,13.5067294 L20.8658064,13.5116706 C20.896934,13.3973176 20.9261894,13.2822588 20.9536894,13.1668471 C20.990317,13.0226118 21.0165298,12.8988471 21.034434,12.7967294 C21.1747426,12.0930824 21.2463596,11.3695529 21.2463596,10.6286118 C21.2463596,8.70931765 20.7686787,6.90590588 19.8264234,5.26849412 C18.8825298,3.62908235 17.5684979,2.32672941 15.9206043,1.39708235 C14.2772745,0.470023529 12.4559553,2.35294119e-05 10.507434,2.35294119e-05 C8.64176383,2.35294119e-05 6.87427447,0.475788235 5.25399787,1.41402353 C3.6338383,2.35284706 2.33864681,3.66414118 1.4047,5.3112 C0.472625532,6.95578824 -2.34042554e-05,8.76214118 -2.34042554e-05,10.6799059 C-2.34042554e-05,12.5996706 0.473093617,14.3983765 1.40657234,16.0261412 C2.34180638,17.6575529 3.65174255,18.9560235 5.30010426,19.8855529 C6.94261489,20.8126118 8.74193404,21.2823765 10.6487957,21.2823765 C11.0538064,21.2823765 11.453083,21.2596706 11.8472106,21.2169647 C11.9473809,21.2095529 12.047317,21.2020235 12.1466681,21.1939059 C12.3743915,21.1757882 12.5995404,21.1561412 12.8227,21.1363765 C13.9403702,21.0370824 15.0095936,20.9334353 16.0850191,20.9786118 C18.1115936,21.0637882 20.1606362,21.6782588 22.5970191,23.8477882 C22.8410085,24.0652 23.1682,23.7930824 22.9531149,23.5250824 C20.8354979,20.8864941 19.0208489,20.1617882 17.3454553,19.7122588 L17.3454553,19.7122588 Z M52.9746894,12.7115529 L54.7174872,12.7115529 C54.8198809,12.7115529 54.8838915,12.6474353 54.8838915,12.5441412 L54.8838915,3.74590588 C54.8838915,3.64296471 54.8198809,3.57837647 54.7174872,3.57837647 L52.9746894,3.57837647 C52.8722957,3.57837647 52.8081681,3.64296471 52.8081681,3.74590588 L52.8081681,12.5441412 C52.8081681,12.6474353 52.8722957,12.7115529 52.9746894,12.7115529 L52.9746894,12.7115529 Z M45.0943596,8.74414118 C45.1711255,8.39625882 45.2735191,7.86802353 45.3504021,7.41708235 C45.3761468,7.23684706 45.5297957,7.23684706 45.5553064,7.41708235 C45.6321894,7.86802353 45.734934,8.40931765 45.8117,8.74414118 L46.2087532,10.4184941 C46.3882638,11.1272 46.5292745,11.8100235 46.6702851,12.5569647 C46.6829234,12.6600235 46.7472851,12.7114353 46.8494447,12.7114353 L49.194317,12.7114353 C49.2967106,12.7114353 49.3608383,12.6600235 49.3738277,12.5569647 C49.5402319,11.6810824 49.7326149,10.8308471 49.9631468,9.94202353 L51.5390723,3.75896471 C51.5776894,3.65578824 51.5135617,3.57849412 51.3981787,3.57849412 L49.6299872,3.57849412 C49.5271255,3.57849412 49.4633489,3.63014118 49.4378383,3.72014118 L48.5662638,7.19814118 C48.3486043,8.07414118 48.1565723,9.19484706 48.0924447,10.0321412 C48.0798064,10.1995529 47.8874234,10.2126118 47.8746681,10.0321412 C47.7592851,9.20767059 47.5541468,8.07414118 47.3108596,7.19814118 L46.3625191,3.72014118 C46.3370085,3.63014118 46.2729979,3.57849412 46.1832426,3.57849412 L44.722466,3.57849412 C44.6328277,3.57849412 44.5687,3.63014118 44.5431894,3.72014118 L43.6077213,7.19814118 C43.3645511,8.07414118 43.1592957,9.20767059 43.0441468,10.0321412 C43.0185191,10.2126118 42.8262532,10.1995529 42.8134979,10.0321412 C42.7366149,9.19484706 42.5572213,8.07414118 42.3393277,7.19814118 L41.4681043,3.72014118 C41.4425936,3.63014118 41.378466,3.57849412 41.2758383,3.57849412 L39.5077638,3.57849412 C39.3923809,3.57849412 39.3283702,3.65578824 39.3667532,3.75896471 L40.9427957,9.94202353 C41.1734447,10.8308471 41.3654766,11.6810824 41.5321149,12.5569647 C41.5448702,12.6600235 41.6089979,12.7114353 41.7116255,12.7114353 L44.0563809,12.7114353 C44.1585404,12.7114353 44.2230191,12.6600235 44.2355404,12.5569647 C44.3894234,11.8100235 44.530434,11.1272 44.6969553,10.4184941 L45.0943596,8.74414118 Z M38.0981255,3.74590588 C38.0981255,3.64296471 38.0342319,3.57837647 37.9318383,3.57837647 L36.1890404,3.57837647 C36.0866468,3.57837647 36.0225191,3.64296471 36.0225191,3.74590588 L36.0225191,12.5441412 C36.0225191,12.6474353 36.0866468,12.7115529 36.1890404,12.7115529 L37.9318383,12.7115529 C38.0342319,12.7115529 38.0981255,12.6474353 38.0981255,12.5441412 L38.0981255,3.74590588 Z M30.5253277,10.9982588 C29.3079553,10.9982588 28.5266043,9.91625882 28.5266043,8.15155294 C28.5266043,6.34802353 29.3079553,5.30472941 30.5253277,5.30472941 C31.7683277,5.30472941 32.5111787,6.34802353 32.5111787,8.15155294 C32.5111787,9.91625882 31.7683277,10.9982588 30.5253277,10.9982588 L30.5253277,10.9982588 Z M33.1391149,14.0899059 L33.7542957,14.9141412 C33.8180723,14.9914353 33.9079447,15.0044941 33.9848277,14.9400235 L35.2658596,13.9353176 C35.3429766,13.8706118 35.3557319,13.7806118 35.2917213,13.7033176 L34.7151574,12.9176706 C34.3178702,12.4023765 33.9720723,12.0803765 33.2287532,11.8099059 C33.0752213,11.7583765 33.0752213,11.7199059 33.2287532,11.6295529 C34.0874553,11.1141412 34.6000085,9.62002353 34.6000085,8.15155294 C34.6000085,5.2532 33.0367213,3.43672941 30.5253277,3.43672941 C28.013817,3.43672941 26.4378915,5.2532 26.4378915,8.15155294 C26.4378915,11.0370824 28.013817,12.8533176 30.5253277,12.8533176 C31.8578489,12.8533176 32.5755404,13.3297882 33.1391149,14.0899059 L33.1391149,14.0899059 Z M52.8830617,18.5568471 C52.9598277,18.0936706 53.2835085,17.8235529 53.6947213,17.8235529 C54.056434,17.8235529 54.3527319,18.0770824 54.3691149,18.5568471 L52.8830617,18.5568471 Z M54.9065936,18.7166118 C54.9065936,17.9999059 54.4898809,17.4100235 53.7056043,17.4100235 C52.9159447,17.4100235 52.3127,17.9834353 52.3127,18.8710824 C52.3127,19.6981412 52.9159447,20.3321412 53.7879872,20.3321412 C54.171817,20.3321412 54.5941468,20.1832 54.8627106,19.9352 L54.6380298,19.5436706 C54.4186149,19.7421412 54.116934,19.8689647 53.8208702,19.8689647 C53.3217745,19.8689647 52.8940617,19.5436706 52.8665617,18.9428471 L54.8847106,18.9428471 C54.8954766,18.8655529 54.9065936,18.7883765 54.9065936,18.7166118 L54.9065936,18.7166118 Z M51.5670404,17.4762588 L51.0568277,17.4762588 L51.0568277,19.8028471 L50.0313702,19.8028471 L50.0313702,17.4762588 L49.5157745,17.4762588 L49.5157745,19.8028471 L48.490434,19.8028471 L48.490434,17.4762588 L47.9804553,17.4762588 L47.9804553,20.2660235 L51.4735404,20.2660235 L51.4735404,20.9275529 L51.9616362,20.9275529 L51.9616362,19.8028471 L51.5670404,19.8028471 L51.5670404,17.4762588 Z M45.9566894,19.8689647 C45.4303277,19.8689647 45.0024979,19.4499059 45.0024979,18.8655529 C45.0024979,18.2867294 45.4303277,17.8732 45.9566894,17.8732 C46.4777851,17.8732 46.9108809,18.2867294 46.9108809,18.8655529 C46.9108809,19.4499059 46.4777851,19.8689647 45.9566894,19.8689647 L45.9566894,19.8689647 Z M45.9511894,17.4100235 C45.1285298,17.4100235 44.4595191,18.0221412 44.4595191,18.8655529 C44.4595191,19.7146118 45.1285298,20.3321412 45.9566894,20.3321412 C46.7793489,20.3321412 47.4483596,19.7146118 47.4483596,18.8655529 C47.4483596,18.0221412 46.7793489,17.4100235 45.9511894,17.4100235 L45.9511894,17.4100235 Z M42.6441681,19.8689647 C42.1343064,19.8689647 41.8600085,19.3783765 41.8600085,18.8822588 C41.8600085,18.1766118 42.2439553,17.8787294 42.6607851,17.8787294 C43.1213809,17.8787294 43.4449447,18.2701412 43.4449447,18.8766118 C43.4449447,19.5106118 43.0829979,19.8689647 42.6441681,19.8689647 L42.6441681,19.8689647 Z M42.764817,17.4100235 C42.3591043,17.4100235 42.0080404,17.5976706 41.8325085,17.9339059 L41.8216255,17.9339059 C41.8216255,17.9339059 41.8380085,17.8400235 41.8380085,17.7242588 L41.8380085,17.4762588 L41.3446468,17.4762588 L41.3446468,21.3686118 L41.8763915,21.3686118 L41.8763915,20.1006118 C41.8763915,19.9572 41.8545085,19.8580235 41.8545085,19.8580235 L41.8655085,19.8580235 C42.0574234,20.1556706 42.3756043,20.3321412 42.726434,20.3321412 C43.4559447,20.3321412 43.9823064,19.7586118 43.9823064,18.8710824 C43.9823064,18.0054353 43.5160936,17.4100235 42.764817,17.4100235 L42.764817,17.4100235 Z M38.0978915,20.2660235 L38.6298702,20.2660235 L38.6298702,17.9339059 L39.9897745,17.9339059 L39.9897745,20.2660235 L40.5218702,20.2660235 L40.5218702,17.4762588 L38.0978915,17.4762588 L38.0978915,20.2660235 Z M34.0615936,18.5568471 C34.1383596,18.0936706 34.4620404,17.8235529 34.8732532,17.8235529 C35.2352,17.8235529 35.5313809,18.0770824 35.5476468,18.5568471 L34.0615936,18.5568471 Z M34.8842532,17.4101412 C34.0944766,17.4101412 33.4913489,17.9834353 33.4913489,18.8710824 C33.4913489,19.6981412 34.0944766,20.3321412 34.9665191,20.3321412 C35.3503489,20.3321412 35.7725617,20.1832 36.0413596,19.9352 L35.8166787,19.5436706 C35.5970298,19.7421412 35.295466,19.8690824 34.9994021,19.8690824 C34.5001894,19.8690824 34.0725936,19.5436706 34.0452106,18.9428471 L36.0632426,18.9428471 C36.0741255,18.8655529 36.0852426,18.7883765 36.0852426,18.7166118 C36.0852426,17.9999059 35.6685298,17.4101412 34.8842532,17.4101412 L34.8842532,17.4101412 Z M35.0982851,16.9248471 L35.5314979,16.9248471 L35.5314979,16.3680235 L35.0982851,16.3680235 L35.0982851,16.9248471 Z M34.1768596,16.9248471 L34.6155723,16.9248471 L34.6155723,16.3680235 L34.1768596,16.3680235 L34.1768596,16.9248471 Z M32.0927106,19.8690824 C31.516966,19.8690824 31.1112532,19.4334353 31.1112532,18.8655529 C31.1112532,18.2979059 31.516966,17.8732 32.0762106,17.8732 C32.3670085,17.8732 32.6574553,18.0054353 32.8441043,18.1929647 L33.0964021,17.8181412 C32.8329872,17.5369647 32.4220085,17.4100235 32.0543277,17.4100235 C31.1825191,17.4100235 30.5681574,18.0441412 30.5681574,18.8710824 C30.5681574,19.7090824 31.1770191,20.3322588 32.0543277,20.3322588 C32.4876574,20.3322588 32.9098702,20.1557882 33.1621681,19.8855529 L32.9483702,19.4941412 C32.7343383,19.7202588 32.3998915,19.8690824 32.0927106,19.8690824 L32.0927106,19.8690824 Z M28.9997213,19.8910824 L28.4292426,19.8910824 L28.4292426,19.0146118 L28.9943383,19.0146118 C29.3617851,19.0146118 29.564817,19.1797882 29.564817,19.4555529 C29.564817,19.7147294 29.3837851,19.8910824 28.9997213,19.8910824 L28.9997213,19.8910824 Z M28.4292426,17.8456706 L28.9339553,17.8456706 C29.2685191,17.8456706 29.4275511,17.9779059 29.4275511,18.2315529 C29.4275511,18.4907294 29.2685191,18.6561412 28.9504553,18.6561412 L28.4292426,18.6561412 L28.4292426,17.8456706 Z M29.5757,18.8104941 L29.5757,18.8049647 C29.8278809,18.6946118 29.9704128,18.4630824 29.9704128,18.1929647 C29.9704128,17.7243765 29.6028489,17.4762588 29.0436043,17.4762588 L27.8976149,17.4762588 L27.8976149,20.2659059 L29.0821043,20.2659059 C29.6852319,20.2659059 30.1020617,19.9903765 30.1020617,19.4720235 C30.1020617,19.1633176 29.9210298,18.8932 29.5757,18.8104941 L29.5757,18.8104941 Z" id="Fill-1" fill="#9B9B9B" mask="url(#mask-2)"></path>
            </g>
        </g>
    </g>
</svg>