<?xml version="1.0" encoding="UTF-8"?>
<svg width="56px" height="30px" viewBox="0 0 56 30" version="1.1" xmlns="http://www.w3.org/2000/svg" xmlns:xlink="http://www.w3.org/1999/xlink">
    <!-- Generator: Sketch 42 (36781) - http://www.bohemiancoding.com/sketch -->
    <title>Bakin Studio Logo</title>
    <desc>Created with Sketch.</desc>
    <defs>
        <polygon id="path-1" points="0 14.8216975 0 29.6430714 55.2221429 29.6430714 55.2221429 0.000323519286 0 0.000323519286 0 14.8216975"></polygon>
    </defs>
    <g id="Symbols" stroke="none" stroke-width="1" fill="none" fill-rule="evenodd">
        <g id="Bakin-Studio-Logo">
            <g>
                <mask id="mask-2" fill="white">
                    <use xlink:href="#path-1"></use>
                </mask>
                <g id="Clip-2"></g>
                <path d="M52.5457143,14.1817857 C50.8885714,12.5153571 48.6028571,11.4832143 46.1028571,11.4832143 L46.0992857,11.4832143 L40.2271429,11.4875 L34.6764286,11.4832143 L34.6764286,6.68178571 L40.6514286,6.69107143 C42.5357143,6.6875 44.0728571,5.14892857 44.0692857,3.25178571 C44.0728571,1.3625 42.545,-0.0075 40.6478571,0.000357142857 L31.3921429,0.000357142857 C29.6807143,0.000357142857 27.9707143,1.71607143 27.975,3.43107143 L27.9778571,14.1439286 C27.9835714,15.8617857 29.6971429,17.5767857 31.4007143,17.5660714 L40.2271429,17.5703571 L46.1028571,17.5703571 C46.7364286,17.5703571 47.3085714,17.8196429 47.705,18.2253571 C48.1257143,18.6489286 48.4135714,19.6925 48.4171429,20.3346429 L48.4135714,20.3346429 C48.4135714,20.9660714 48.1292857,21.7825 47.7228571,22.1889286 C47.305,22.6039286 46.7364286,22.9296429 46.1042857,22.9296429 L46.1028571,22.9296429 L24.0457143,22.9353571 L22.0664286,22.9296429 L14.8314286,22.9353571 C12.6342857,22.9353571 10.6378571,21.9753571 9.19285714,20.5246429 L9.2,20.5146429 C7.75142857,19.0660714 6.84285714,17.0567857 6.83857143,14.8667857 L6.84428571,14.8667857 C6.83857143,12.6575 7.74,10.6553571 9.17642857,9.21678571 L9.19285714,9.21178571 C10.6378571,7.76607143 12.6357143,6.67892857 14.8257143,6.67107143 L14.8292857,6.67892857 L20.5271429,6.67535714 C22.4185714,6.67535714 23.9507143,5.31964286 23.9507143,3.41892857 C23.9507143,1.5325 22.4185714,0.000357142857 20.5271429,0.000357142857 L14.8207143,0.000357142857 C10.7492857,0.0025 7.04,1.6725 4.35714286,4.3675 L4.35714286,4.37464286 C1.66642857,7.07035714 0.005,10.7889286 0,14.8667857 L0.005,14.8667857 L0,14.8717857 C0.005,18.9603571 1.66642857,22.6760714 4.35714286,25.3667857 L4.36785714,25.3589286 C7.05428571,28.0589286 10.7621429,29.6453571 14.8314286,29.6432143 L22.0735714,29.6432143 L24.0385714,29.6410714 L46.1028571,29.6410714 L46.1121429,29.6432143 C48.6042857,29.6339286 50.8864286,28.6932143 52.5421429,27.0425 C54.1964286,25.3775 55.2328571,23.0825 55.2221429,20.5739286 C55.2221429,18.0667857 54.1964286,15.8389286 52.5457143,14.1817857" id="Fill-1" fill="#FEFEFE" mask="url(#mask-2)"></path>
            </g>
        </g>
    </g>
</svg>