<?xml version="1.0" encoding="UTF-8"?>
<svg width="30px" height="26px" viewBox="0 0 30 26" version="1.1" xmlns="http://www.w3.org/2000/svg" xmlns:xlink="http://www.w3.org/1999/xlink">
    <!-- Generator: Sketch 42 (36781) - http://www.bohemiancoding.com/sketch -->
    <title>Fill 3</title>
    <desc>Created with Sketch.</desc>
    <defs></defs>
    <g id="Symbols" stroke="none" stroke-width="1" fill="none" fill-rule="evenodd">
        <g id="Clip-2" fill="#FEFEFE">
            <path d="M23.770211,23.9127248 C23.6114037,24.2273119 23.290211,24.5091468 22.6384679,24.2581376 L13.1281927,16.9670367 C15.353422,14.9666697 22.800578,8.27088991 24.1932385,7.0070367 C24.197367,7.00345872 24.2014954,6.9996055 24.2056239,6.99575229 C24.2510367,6.95474312 24.2895688,6.91978899 24.3206697,6.89116514 C24.3250734,6.88731193 24.3311284,6.88180734 24.3352569,6.87795413 C24.3677339,6.84850459 24.3933303,6.82483486 24.407367,6.81162385 C24.7117706,6.52786239 25.0538807,6.13813761 25.0013119,5.63997248 C24.9955321,5.58437615 24.9845229,5.53015596 24.9688349,5.47786239 C24.9225963,5.17511009 24.7571835,4.91804587 24.5012202,4.76391743 C23.973055,4.44602752 23.3314954,4.7017156 22.8713119,4.98107339 L8.08048624,14.3741009 L2.17406422,12.385844 C1.97452294,12.3112569 1.7276422,12.1403394 1.66516514,12.0123578 C1.75158716,11.9146514 1.99406422,11.7674037 2.19002752,11.6980459 C2.20158716,11.6939174 2.21314679,11.689789 2.22443119,11.6853853 L27.2636972,1.863 C27.2725046,1.85942202 27.2835138,1.85474312 27.2920459,1.85116514 C27.5920459,1.72180734 27.9914037,1.63731193 28.1859908,1.64804587 L23.770211,23.9127248 Z M12.143422,22.403367 L12.5714037,18.6208899 L14.5921376,20.170156 L12.143422,22.403367 Z M11.4115872,16.289422 C11.3716789,16.3252018 11.3367248,16.3645596 11.3050734,16.4066697 C11.2929633,16.422633 11.2838807,16.4402477 11.2731468,16.4567615 C11.2555321,16.4837339 11.2381927,16.510156 11.224156,16.5387798 C11.2139725,16.5591468 11.2068165,16.5803394 11.1985596,16.6018073 C11.1878257,16.6285046 11.177367,16.6552018 11.1696606,16.683 C11.1671835,16.6918073 11.1636055,16.7003394 11.1614037,16.7091468 C11.1325046,16.7787798 11.1091101,16.8519908 11.1003028,16.9309817 L10.684156,20.6113486 C10.173055,18.9475872 9.48718349,16.7025413 9.16378899,15.6423578 L19.2600275,9.23033945 C16.9103945,11.3454771 14.1154404,13.8585963 12.5749817,15.2435505 C12.5047982,15.3063028 12.437367,15.3671284 12.3726881,15.4252018 C12.2433303,15.5416239 12.1249817,15.6481376 12.0190183,15.7430917 C11.6477339,16.076945 11.4267248,16.2753853 11.4115872,16.289422 L11.4115872,16.289422 Z M29.1506697,0.271623853 C28.2611284,-0.309385321 26.9444312,0.202816514 26.646633,0.331073394 L1.63709174,10.1418991 C0.802321101,10.4330917 -0.117220183,11.1363028 0.012412844,12.1728165 C0.16433945,13.3912569 1.46755046,13.8874954 1.6282844,13.9441927 L7.52479817,15.9291468 C7.95250459,17.3317156 9.36388073,21.953367 9.67956881,22.9521743 C9.89287156,23.6278624 10.2462661,24.5143761 10.8938807,24.7045596 C11.0590183,24.7648349 11.2238807,24.7923578 11.3813119,24.7923578 C11.7545229,24.7923578 12.0894771,24.6495138 12.306633,24.4846514 C12.3264495,24.4695138 12.3454404,24.4535505 12.364156,24.4367615 L15.9236972,21.1909817 L21.7203028,25.6351101 C21.7731468,25.6755688 21.830945,25.7096972 21.8923211,25.7366697 C22.3494771,25.936211 22.7543394,26.0074954 23.0992018,26.0074954 C23.4603028,26.0072202 23.7564495,25.9293303 23.9793853,25.8379541 C24.913789,25.4545596 25.2883761,24.5746514 25.3277339,24.475844 C25.347,24.4285046 25.3610367,24.3795138 25.370945,24.3299725 L29.830211,1.84731193 C29.8406697,1.79446789 29.8458991,1.74052294 29.8458991,1.68657798 C29.8458991,0.850431193 29.410211,0.441440367 29.1506697,0.271623853 L29.1506697,0.271623853 Z" id="Fill-3"></path>
        </g>
    </g>
</svg>