<?xml version="1.0" encoding="UTF-8"?>
<svg width="28px" height="36px" viewBox="0 0 28 36" version="1.1" xmlns="http://www.w3.org/2000/svg" xmlns:xlink="http://www.w3.org/1999/xlink">
    <!-- Generator: Sketch 42 (36781) - http://www.bohemiancoding.com/sketch -->
    <title>User Icon</title>
    <desc>Created with Sketch.</desc>
    <defs>
        <polygon id="path-1" points="27.7216899 17.8007445 27.7216899 35.6014395 0 35.6014395 0 17.8007445 0 4.95021332e-05 27.7216899 4.95021332e-05 27.7216899 17.8007445"></polygon>
    </defs>
    <g id="Symbols" stroke="none" stroke-width="1" fill="none" fill-rule="evenodd">
        <g id="User-Icon">
            <g>
                <mask id="mask-2" fill="white">
                    <use xlink:href="#path-1"></use>
                </mask>
                <g id="Clip-2"></g>
                <path d="M13.8601024,16.830775 C18.0974851,16.830775 21.4938265,12.0256028 21.4938265,7.74713343 C21.4938265,3.46866401 18.0583784,4.95021332e-05 13.8209957,4.95021332e-05 C9.58361309,4.95021332e-05 6.14816501,3.46866401 6.14816501,7.74713343 C6.14866003,12.0256028 9.62271977,16.830775 13.8601024,16.830775 L13.8601024,16.830775 Z M27.6954538,31.2354009 C27.6949587,25.1713895 22.7729616,20.2558276 16.7005349,20.2558276 L10.9944239,20.2558276 C4.92249218,20.2558276 0,25.1713895 0,31.2354009 L0.0262361309,32.5338418 C0.0262361309,34.2278048 1.40140541,35.601489 3.09833855,35.601489 L24.6495875,35.601489 C26.3460256,35.601489 27.7216899,34.2278048 27.7216899,32.5338418 L27.6954538,31.2354009 Z" id="Fill-1" fill="#C6018F" mask="url(#mask-2)"></path>
            </g>
        </g>
    </g>
</svg>