<?xml version="1.0" encoding="UTF-8"?>
<svg width="56px" height="19px" viewBox="0 0 56 19" version="1.1" xmlns="http://www.w3.org/2000/svg" xmlns:xlink="http://www.w3.org/1999/xlink">
    <!-- Generator: Sketch 42 (36781) - http://www.bohemiancoding.com/sketch -->
    <title>Visa</title>
    <desc>Created with Sketch.</desc>
    <defs></defs>
    <g id="Symbols" stroke="none" stroke-width="1" fill="none" fill-rule="evenodd">
        <g id="Visa" fill="#9B9B9B">
            <path d="M36.6063704,0 C32.1338889,0 28.9857037,2.37792593 28.9602963,5.782 L28.9602963,5.782 C28.9304815,8.30122222 31.207037,9.70511111 32.9222963,10.5427778 L32.9222963,10.5427778 C34.6844815,11.3998889 35.2758519,11.9497778 35.2691111,12.7164074 L35.2691111,12.7164074 C35.2558889,13.8905926 33.8628889,14.4080741 32.5603704,14.4282963 L32.5603704,14.4282963 C30.2856296,14.4638148 28.964963,13.8135926 27.9131481,13.3230741 L27.9131481,13.3230741 L27.0938889,17.1562222 C28.1501111,17.6412963 30.1018148,18.0646667 32.1258519,18.0854074 L32.1258519,18.0854074 C36.8798889,18.0854074 39.9889259,15.7380741 40.0037037,12.1004074 L40.0037037,12.1004074 C40.0239259,7.4842963 33.619963,7.22944444 33.664037,5.16677778 L33.664037,5.16677778 C33.6782963,4.53962963 34.2756296,3.87281481 35.5835926,3.70196296 L35.5835926,3.70196296 C36.230963,3.61744444 38.0188148,3.55211111 40.0446667,4.48440741 L40.0446667,4.48440741 L40.8398148,0.775703704 C39.7501481,0.380074074 38.3498889,0 36.6063704,0 Z M48.4845926,0.319925926 C47.6158148,0.319925926 46.8834074,0.824703704 46.5582963,1.60274074 L46.5582963,1.60274074 L39.7682963,17.8118889 L44.5187037,17.8118889 L45.4631852,15.1985556 L51.268,15.1985556 L51.815037,17.8118889 L56,17.8118889 L52.347037,0.319925926 L48.4845926,0.319925926 Z M49.1477778,5.04622222 L50.5187407,11.614037 L46.7654444,11.614037 L49.1477778,5.04622222 Z M23.2034444,0.319925926 L19.46,17.8118889 L23.9856296,17.8118889 L27.7275185,0.319925926 L23.2034444,0.319925926 Z M16.5085926,0.319925926 L11.7988889,12.2253704 L9.89333333,2.10311111 C9.67062963,0.972481481 8.78759259,0.319925926 7.80681481,0.319925926 L7.80681481,0.319925926 L0.106555556,0.319925926 L1.13686838e-13,0.827037037 C1.58018519,1.17107407 3.37633333,1.72485185 4.46392593,2.31544444 L4.46392593,2.31544444 C5.12996296,2.67711111 5.31974074,2.99237037 5.53907407,3.85207407 L5.53907407,3.85207407 L9.14692593,17.8118889 L13.93,17.8118889 L21.2615926,0.319925926 L16.5085926,0.319925926 Z"></path>
        </g>
    </g>
</svg>