<?xml version="1.0" encoding="UTF-8"?>
<svg width="30px" height="18px" viewBox="0 0 30 18" version="1.1" xmlns="http://www.w3.org/2000/svg" xmlns:xlink="http://www.w3.org/1999/xlink">
    <!-- Generator: Sketch 42 (36781) - http://www.bohemiancoding.com/sketch -->
    <title>Fill 2</title>
    <desc>Created with Sketch.</desc>
    <defs></defs>
    <g id="Symbols" stroke="none" stroke-width="1" fill="none" fill-rule="evenodd">
        <g id="Clip-2" fill="#FFFFFF">
            <path d="M29.1733407,1.20030769 C29.3037802,0.548 29.0167473,0.182505495 28.3382857,0.182505495 L24.9199341,0.182505495 C24.1370769,0.182505495 23.850044,0.521736264 23.6152088,1.01756044 C23.6152088,1.01756044 21.7670769,4.95547253 19.5185055,7.4369011 C18.7965275,8.2390989 18.4294945,8.48052747 18.031033,8.48052747 C17.7097143,8.48052747 17.5613626,8.21261538 17.5613626,7.48887912 L17.5613626,1.14810989 C17.5613626,0.260967033 17.456967,-2.1978022e-05 16.7264176,-2.1978022e-05 L11.2466374,-2.1978022e-05 C10.8290549,-2.1978022e-05 10.5680659,0.242725275 10.5680659,0.573934066 C10.5680659,1.40942857 11.8467473,1.598 11.8467473,3.86184615 L11.8467473,8.53272527 C11.8467473,9.47217582 11.7945495,9.83745055 11.3509231,9.83745055 C10.1767473,9.83745055 7.38465934,5.79294505 5.81905495,1.20030769 C5.50586813,0.260967033 5.16663736,-2.1978022e-05 4.27938462,-2.1978022e-05 L0.861142857,-2.1978022e-05 C0.365318681,-2.1978022e-05 -6.59340658e-05,0.339098901 -6.59340658e-05,0.834813187 C-6.59340658e-05,1.74810989 1.06982418,5.97547253 5.27114286,11.638 C8.08916484,15.4477802 11.7945495,17.5090989 15.1346593,17.5090989 C17.1699341,17.5090989 17.6657582,17.1700879 17.6657582,16.3088791 L17.6657582,13.3862418 C17.6657582,12.6554725 17.9527912,12.3425055 18.3702637,12.3425055 C18.8399341,12.3425055 19.6689451,12.4933846 21.605978,14.4039341 C23.9022418,16.5959121 24.0588352,17.5090989 25.3114725,17.5090989 L29.1471868,17.5090989 C29.5386154,17.5090989 29.9038901,17.3264615 29.9038901,16.6741538 C29.9038901,15.8129451 28.7818022,14.2734945 27.0596044,12.4467912 C26.3550989,11.5074505 25.206967,10.4897582 24.8415824,10.0200879 C24.3198242,9.47217582 24.4763077,9.15887912 24.8415824,8.58492308 C24.8415824,8.58492308 28.7818022,3.0269011 29.1733407,1.20030769 Z" id="Fill-2"></path>
        </g>
    </g>
</svg>