<?xml version="1.0" encoding="UTF-8"?>
<svg width="100px" height="19px" viewBox="0 0 100 19" version="1.1" xmlns="http://www.w3.org/2000/svg" xmlns:xlink="http://www.w3.org/1999/xlink">
    <!-- Generator: Sketch 42 (36781) - http://www.bohemiancoding.com/sketch -->
    <title>Yandex Money</title>
    <desc>Created with Sketch.</desc>
    <defs>
        <polygon id="path-1" points="99.8642586 3.80000001e-05 99.8642586 19 0 19 0 3.80000001e-05 99.8642586 3.80000001e-05"></polygon>
    </defs>
    <g id="Symbols" stroke="none" stroke-width="1" fill="none" fill-rule="evenodd">
        <g id="Yandex-Money">
            <g>
                <mask id="mask-2" fill="white">
                    <use xlink:href="#path-1"></use>
                </mask>
                <g id="Clip-2"></g>
                <path d="M30.1607605,6.105498 C31.1862357,6.105498 31.5054373,7.540758 31.5054373,9.500038 L28.5647529,9.500038 C28.6790114,7.449368 29.0664639,6.105498 30.1607605,6.105498 L30.1607605,6.105498 Z M30.6847148,14.922068 C29.2714068,14.922068 28.5419392,13.555398 28.5419392,10.958098 L33.3293916,10.958098 L33.3293916,9.978078 C33.3293916,6.082698 32.0753992,4.647438 30.1607605,4.647438 C27.721597,4.647438 26.6957414,7.335748 26.6957414,11.026688 C26.6957414,14.557838 28.1546768,16.448338 30.5252091,16.448338 C31.664943,16.448338 32.6227376,16.084108 33.3522053,15.513918 L32.9415589,14.147818 C32.4856654,14.466638 31.6877567,14.922068 30.6847148,14.922068 L30.6847148,14.922068 Z M41.4898479,4.806848 L39.6888973,4.806848 L36.9309125,10.115068 L36.9309125,4.806848 L35.1527757,4.806848 L35.1527757,16.288928 L36.9309125,16.288928 L36.9309125,10.570498 L39.9624715,16.288928 L41.9001141,16.288928 L38.6406084,10.206268 L41.4898479,4.806848 Z M46.1174144,14.967858 C44.6812928,14.967858 43.9974525,13.327208 43.9974525,10.456688 C43.9974525,7.563558 44.9092395,6.128298 46.1858555,6.128298 C46.9153232,6.128298 47.5991635,6.515518 48.0776806,6.925728 L48.3286312,5.239478 C47.8271103,4.921038 47.2343346,4.647438 46.2086692,4.647438 C43.5187452,4.647438 42.1280608,6.948338 42.1280608,10.548078 C42.1280608,14.466638 43.6098099,16.448338 46.071597,16.448338 C47.1204563,16.448338 47.849924,16.106528 48.4651331,15.582698 L48.0548669,14.261628 C47.6447909,14.626048 46.983384,14.967858 46.1174144,14.967858 L46.1174144,14.967858 Z M67.9902281,9.886688 L63.8179848,9.886688 C63.9094297,7.016738 64.890038,5.467858 66.0980228,5.467858 C67.2607605,5.467858 68.1721673,6.834528 67.9902281,9.886688 L67.9902281,9.886688 Z M66.0980228,4.579038 C64.1601901,4.579038 62.7468821,6.788928 62.7468821,10.548078 C62.7468821,14.306468 63.8643726,16.516358 66.3031559,16.516358 C68.1265399,16.516358 68.9926996,15.217708 68.9926996,15.217708 L68.6506844,14.352828 C68.6506844,14.352828 67.8527757,15.582698 66.3257795,15.582698 C64.661711,15.582698 63.8411787,13.874218 63.7955513,10.730668 L68.9926996,10.730668 C69.3573384,6.652318 68.0811027,4.579038 66.0980228,4.579038 L66.0980228,4.579038 Z M76.0153232,9.886688 L72.0946008,9.886688 L72.0946008,4.806848 L71.0234981,4.806848 L71.0234981,16.288928 L72.0946008,16.288928 L72.0946008,10.753088 L76.0153232,10.753088 L76.0153232,16.288928 L77.086616,16.288928 L77.086616,4.806848 L76.0153232,4.806848 L76.0153232,9.886688 Z M81.3740684,15.445898 L80.6898479,15.445898 L80.6898479,9.909868 L81.4877567,9.909868 C83.1293916,9.909868 84.0868061,10.730668 84.0868061,12.666578 C84.0868061,14.649038 82.9925095,15.445898 81.3740684,15.445898 L81.3740684,15.445898 Z M81.5343346,9.067218 L80.6898479,9.067218 L80.6898479,4.806848 L79.6193156,4.806848 L79.6193156,16.288928 L81.4653232,16.288928 C83.6309125,16.288928 85.1354753,15.081478 85.1354753,12.644158 C85.1354753,10.251868 83.7221673,9.067218 81.5343346,9.067218 L81.5343346,9.067218 Z M59.3482129,15.355268 L54.264943,15.355268 C54.8801521,14.602868 55.2451711,12.985398 55.4501141,10.548078 C55.6324335,8.201198 55.746692,5.057458 55.8151331,0.933888 L59.3482129,0.933888 L59.3482129,15.355268 Z M60.4879468,3.80000001e-05 L54.7892776,3.80000001e-05 C54.7208365,4.533438 54.6523954,8.133178 54.4244487,10.548078 C54.1965019,12.871588 53.8092395,14.694068 53.0111407,15.355268 L52.5324335,15.355268 L52.5324335,19.000038 L53.4214068,19.000038 L53.5811027,16.288928 L60.5563878,16.288928 L60.7158935,19.000038 L61.6054373,19.000038 L61.6054373,15.355268 L60.4879468,15.355268 L60.4879468,3.80000001e-05 Z M6.26874525,8.588798 L5.33414449,8.588798 C3.80657795,8.588798 2.55334601,7.745768 2.55334601,5.126048 C2.55334601,2.414748 3.9208365,1.480898 5.33414449,1.480898 L6.26874525,1.480898 L6.26874525,8.588798 Z M0.66095057,5.126048 C0.66095057,7.563558 1.61836502,8.884628 3.05467681,9.613848 L-7.60456273e-05,16.288928 L2.02882129,16.288928 L4.80980989,10.046858 L6.26874525,10.046858 L6.26874525,16.288928 L8.02406844,16.288928 L8.02406844,3.80000001e-05 L5.40258555,3.80000001e-05 C2.82653992,3.80000001e-05 0.66095057,1.708518 0.66095057,5.126048 L0.66095057,5.126048 Z M14.7280608,9.681678 L12.0839544,9.681678 L12.0839544,4.806848 L10.3058175,4.806848 L10.3058175,16.288928 L12.0839544,16.288928 L12.0839544,11.140498 L14.7280608,11.140498 L14.7280608,16.288928 L16.483384,16.288928 L16.483384,4.806848 L14.7280608,4.806848 L14.7280608,9.681678 Z M98.9301521,4.806848 L95.1913688,12.871588 C94.9628517,13.372808 94.7352852,13.874218 94.5757795,14.397858 L94.5077186,14.397858 C94.5525856,13.896638 94.5989734,13.395228 94.5989734,12.780388 L94.5989734,4.806848 L93.5961217,4.806848 L93.5961217,16.288928 L94.5077186,16.288928 L98.2459316,8.201198 C98.496692,7.700168 98.7018251,7.221748 98.8611407,6.720338 L98.9301521,6.720338 C98.8835741,7.198948 98.8387072,7.700168 98.8387072,8.292588 L98.8387072,16.288928 L99.8643726,16.288928 L99.8643726,4.806848 L98.9301521,4.806848 Z M22.9571483,14.830868 L19.9027757,14.830868 C20.8601901,12.392978 20.9738783,8.862208 20.9738783,6.447498 L20.9738783,6.242108 L22.9571483,6.242108 L22.9571483,14.830868 Z M24.7124715,4.806848 L19.3784411,4.806848 L19.3784411,5.786488 C19.3784411,8.839408 19.2643726,12.392978 18.2158935,14.830868 L17.5092395,14.830868 L17.5092395,18.544418 L19.1048669,18.544418 L19.1048669,16.288928 L24.0288213,16.288928 L24.0288213,18.544418 L25.6242586,18.544418 L25.6242586,14.830868 L24.7124715,14.830868 L24.7124715,4.806848 Z M86.9835741,16.288928 L88.0314829,16.288928 L88.0314829,5.695668 L91.8387072,5.695668 L91.8387072,4.806848 L86.9835741,4.806848 L86.9835741,16.288928 Z" id="Fill-1" fill="#9B9B9B" mask="url(#mask-2)"></path>
            </g>
        </g>
    </g>
</svg>